<?xml version="1.0" encoding="UTF-8" standalone="no"?>
<!-- Created with Inkscape (http://www.inkscape.org/) -->

<svg
   xmlns:dc="http://purl.org/dc/elements/1.1/"
   xmlns:cc="http://creativecommons.org/ns#"
   xmlns:rdf="http://www.w3.org/1999/02/22-rdf-syntax-ns#"
   xmlns:svg="http://www.w3.org/2000/svg"
   xmlns="http://www.w3.org/2000/svg"
   xmlns:sodipodi="http://sodipodi.sourceforge.net/DTD/sodipodi-0.dtd"
   xmlns:inkscape="http://www.inkscape.org/namespaces/inkscape"
   width="177.79721mm"
   height="138.10873mm"
   viewBox="0 0 629.99011 489.36165"
   id="svg2"
   version="1.1"
   inkscape:version="0.91 r13725"
   sodipodi:docname="heart_logo_001_015.svg"
   inkscape:export-filename="C:\Users\axevalley\Desktop\heart_logo\heart_logo.png"
   inkscape:export-xdpi="28.506525"
   inkscape:export-ydpi="28.506525">
  <defs
     id="defs4" />
  <sodipodi:namedview
     id="base"
     pagecolor="#ffffff"
     bordercolor="#666666"
     borderopacity="1.0"
     inkscape:pageopacity="0.0"
     inkscape:pageshadow="2"
     inkscape:zoom="1.4"
     inkscape:cx="160.16808"
     inkscape:cy="245.42167"
     inkscape:document-units="px"
     inkscape:current-layer="layer1"
     showgrid="false"
     inkscape:window-width="1920"
     inkscape:window-height="1018"
     inkscape:window-x="-8"
     inkscape:window-y="-8"
     inkscape:window-maximized="1"
     fit-margin-top="0"
     fit-margin-left="0"
     fit-margin-right="0"
     fit-margin-bottom="0" />
  <metadata
     id="metadata7">
    <rdf:RDF>
      <cc:Work
         rdf:about="">
        <dc:format>image/svg+xml</dc:format>
        <dc:type
           rdf:resource="http://purl.org/dc/dcmitype/StillImage" />
        <dc:title></dc:title>
      </cc:Work>
    </rdf:RDF>
  </metadata>
  <g
     inkscape:label="Layer 1"
     inkscape:groupmode="layer"
     id="layer1"
     transform="translate(-48.419393,-129.47071)">
    <path
       id="path4852"
       style="fill:#26d3df;fill-opacity:1;fill-rule:evenodd;stroke:#000000;stroke-width:3.78999996;stroke-linecap:round;stroke-linejoin:miter;stroke-miterlimit:4;stroke-dasharray:none;stroke-opacity:1"
       d="m 144.27055,285.64673 c 22.6021,-86.19546 103.89633,-89.64127 148.85272,-67.94079 49.83586,24.05582 70.29118,80.61798 70.29118,80.61798 0,0 20.4553,-56.56216 70.29117,-80.61798 44.95639,-21.70048 126.25061,-18.25467 148.85271,67.94079 38.08608,145.24527 -219.14388,312.32009 -219.14388,312.32009 0,0 -257.22998,-167.07482 -219.1439,-312.32009 z M 55.714286,229.50507 C 87.449915,122.65971 201.59522,118.38839 264.71854,145.28768 c 69.97458,29.81888 98.69591,99.93167 98.69591,99.93167 0,0 28.72132,-70.11279 98.6959,-99.93167 63.12332,-26.89929 177.26862,-22.62797 209.00425,84.21739 53.47672,180.04179 -307.70015,387.14285 -307.70015,387.14285 0,0 -361.1768836,-207.10106 -307.700164,-387.14285 z"
       inkscape:connector-curvature="0" />
    <g
       style="font-style:normal;font-variant:normal;font-weight:normal;font-stretch:normal;font-size:80px;line-height:125%;font-family:'MV Boli';-inkscape-font-specification:'MV Boli';letter-spacing:0px;word-spacing:0px;fill:#000000;fill-opacity:1;stroke:none;stroke-width:1px;stroke-linecap:butt;stroke-linejoin:miter;stroke-opacity:1"
       id="text5404"
       transform="matrix(0.98480775,-0.17364817,0.17364817,0.98480775,-65.489883,31.640124)">
      <path
         d="m 234.63168,314.06976 q 0,2.8125 -1.32812,5.23438 -2.96875,5.3125 -7.57813,9.29687 -4.53125,3.90625 -9.92187,6.5625 5.07812,0.85938 8.04687,4.375 2.96875,3.51563 2.96875,8.67188 0,4.21875 -1.71875,8.04687 -1.71875,3.75 -4.6875,6.64063 -2.89062,2.89062 -6.71875,4.53125 -3.82812,1.71875 -8.04687,1.71875 -4.21875,0 -8.04688,-1.40625 -3.82812,-1.32813 -7.34375,-3.59375 -0.625,-0.39063 -1.25,-0.78125 -0.625,-0.46875 -1.25,-0.9375 -0.39062,-0.23438 -0.39062,-0.70313 0,-0.15625 0.15625,-0.46875 -3.28125,3.4375 -7.5,5.54688 -4.21875,2.1875 -8.90625,2.1875 -0.46875,0 -0.70313,-0.39063 -0.3125,-0.39062 -0.3125,-0.78125 0,-0.9375 0.85938,-1.09375 1.5625,-0.39062 2.96875,-0.625 1.48437,-0.3125 3.04687,-1.01562 3.67188,-1.64063 6.48438,-4.53125 2.8125,-2.89063 5,-6.40625 2.1875,-3.51563 3.75,-7.34375 1.64062,-3.90625 2.96875,-7.42188 1.17187,-3.125 2.1875,-6.25 1.01562,-3.20312 2.03125,-6.32812 1.09375,-3.20313 2.26562,-6.25 1.25,-3.125 2.8125,-6.09375 -2.1875,1.32812 -4.45312,2.34375 -2.26563,1.01562 -4.375,2.34375 -3.28125,2.03125 -6.48438,4.76562 -3.20312,2.65625 -4.60937,6.32813 -0.3125,0.78125 -0.46875,1.48437 -0.15625,0.70313 -0.3125,1.40625 -0.23438,0.70313 -1.01563,0.70313 -0.3125,0 -0.85937,-0.23438 -0.46875,-0.3125 -0.46875,-0.625 0,-3.20312 1.32812,-6.01562 1.32813,-2.8125 3.51563,-5.23438 2.1875,-2.42187 5,-4.45312 2.89062,-2.03125 5.9375,-3.75 3.04687,-1.71875 6.09375,-3.04688 3.04687,-1.40625 5.54687,-2.5 0.15625,-0.0781 0.23438,-0.15625 0.15625,-0.0781 0.3125,-0.0781 0.46875,0 0.9375,0.39062 0.46875,0.3125 0.46875,0.85938 0,0.0781 -0.39063,1.09375 -0.39062,1.01562 -0.9375,2.26562 -0.54687,1.17188 -1.01562,2.26563 -0.46875,1.09375 -0.54688,1.40625 1.71875,-1.5625 3.90625,-3.125 2.26563,-1.64063 4.6875,-2.96875 2.5,-1.32813 5,-2.1875 2.57813,-0.85938 5,-0.85938 3.4375,0 5.78125,1.875 2.34375,1.79688 2.34375,5.3125 z m -3.90625,0 q 0,-2.03125 -1.40625,-2.73437 -1.32812,-0.70313 -3.125,-0.70313 -2.57812,0 -5.39062,1.01563 -2.73438,1.01562 -5.39063,2.57812 -2.65625,1.5625 -5.07812,3.4375 -2.42188,1.79688 -4.29688,3.4375 -1.79687,4.92188 -3.51562,9.84375 -1.71875,4.92188 -3.59375,9.84375 -1.875,4.84375 -4.14063,9.53125 -2.26562,4.60938 -5.46875,8.75 -0.46875,0.70313 -1.17187,1.40625 0.15625,-0.0781 0.46875,-0.0781 0.15625,0 0.46875,0.15625 3.67187,2.10937 7.42187,3.67187 3.82813,1.5625 8.125,1.5625 3.4375,0 6.64063,-1.32812 3.28125,-1.32813 5.78125,-3.67188 2.5,-2.34375 3.98437,-5.39062 1.5625,-3.125 1.5625,-6.64063 0,-3.20312 -1.25,-5.15625 -1.17187,-2.03125 -3.20312,-3.20312 -1.95313,-1.17188 -4.53125,-1.64063 -2.5,-0.46875 -5.15625,-0.54687 -0.15625,0.0781 -0.46875,0.23437 -0.3125,0.0781 -0.70313,0.23438 -0.39062,0.0781 -0.70312,0.15625 -0.3125,0.0781 -0.39063,0.0781 -0.625,0 -0.9375,-0.39062 -0.3125,-0.46875 -0.3125,-1.01563 0,-0.70312 0.78125,-1.01562 0.23438,-0.625 0.625,-0.625 0.39063,-0.0781 0.78125,-0.23438 0.78125,-0.3125 1.79688,-1.01562 1.09375,-0.70313 1.875,-1.09375 2.26562,-1.32813 4.53125,-2.73438 2.34375,-1.48437 4.60937,-3.04687 1.40625,-1.01563 3.20313,-2.57813 1.875,-1.5625 3.51562,-3.4375 1.71875,-1.875 2.89063,-3.82812 1.17187,-2.03125 1.17187,-3.82813 z"
         style="font-style:normal;font-variant:normal;font-weight:normal;font-stretch:normal;font-size:80px;font-family:Calligraffitti;-inkscape-font-specification:Calligraffitti;text-align:center;text-anchor:middle"
         id="path4144"
         inkscape:connector-curvature="0" />
      <path
         d="m 303.06918,302.27289 q 0,0.46875 -0.23437,0.70312 -2.5,2.5 -6.17188,4.0625 -3.59375,1.48438 -7.03125,2.10938 -3.35937,0.625 -6.71875,0.85937 -3.35937,0.23438 -6.71875,0.39063 -3.35937,0.0781 -6.71875,0.3125 -3.35937,0.15625 -6.64062,0.85937 -0.39063,6.32813 -2.03125,12.42188 -1.5625,6.09375 -3.59375,12.03125 2.1875,0 4.29687,0.3125 2.1875,0.3125 4.375,0.3125 1.95313,0 3.82813,-0.15625 1.95312,-0.23438 3.82812,-0.70313 0.23438,-0.0781 0.70313,-0.23437 0.54687,-0.15625 1.01562,-0.3125 0.54688,-0.15625 0.9375,-0.3125 0.46875,-0.15625 0.54688,-0.15625 0.39062,0 0.85937,0.54687 0.46875,0.54688 0.46875,0.85938 0,0.46875 -0.39062,0.70312 -2.96875,1.875 -6.71875,2.73438 -3.75,0.85937 -7.1875,0.85937 -1.32813,0 -2.57813,-0.15625 -1.25,-0.15625 -2.57812,-0.15625 -1.64063,0 -2.96875,0.3125 -2.03125,5.78125 -4.53125,11.32813 -2.5,5.54687 -5.3125,11.01562 2.57812,0 5.07812,0.39063 2.57813,0.39062 5.07813,0.85937 2.5,0.39063 5,0.78125 2.57812,0.39063 5.15625,0.39063 1.17187,0 2.34375,-0.0781 1.17187,-0.0781 2.34375,-0.3125 3.82812,-0.78125 6.48437,-2.73437 2.73438,-1.95313 5.46875,-4.53125 0.3125,-0.3125 0.625,-0.3125 0.46875,0 0.85938,0.46875 0.46875,0.39062 0.46875,0.78125 0,0.23437 -0.15625,0.54687 -3.51563,4.92188 -8.51563,7.42188 -5,2.5 -11.01562,2.5 -2.42188,0 -4.76563,-0.3125 -2.34375,-0.23438 -4.6875,-0.625 -2.34375,-0.3125 -4.6875,-0.625 -2.34375,-0.3125 -4.76562,-0.3125 -0.625,0 -1.32813,0 -0.70312,0 -1.32812,0.0781 -0.23438,0.46875 -0.625,1.17188 -0.3125,0.70312 -0.9375,0.70312 -0.54688,0 -1.01563,-0.3125 -0.39062,-0.3125 -0.39062,-0.85937 0,-0.23438 0.15625,-0.39063 -1.32813,0.23438 -2.42188,0.46875 -1.09375,0.3125 -2.10937,0.625 -0.9375,0.39063 -1.95313,0.78125 -1.01562,0.46875 -2.26562,0.9375 l -0.23438,0 q -0.54687,0 -0.9375,-0.46875 -0.39062,-0.39062 -0.39062,-0.9375 0,-0.39062 0.23437,-0.625 2.26563,-2.5 5.46875,-3.67187 3.28125,-1.25 6.5625,-1.64063 2.26563,-5.23437 4.375,-10.46875 2.10938,-5.3125 4.0625,-10.70312 -0.15625,0.0781 -0.70312,0.3125 -0.54688,0.23437 -1.09375,0.54687 -0.54688,0.23438 -1.01563,0.46875 -0.46875,0.15625 -0.54687,0.15625 -0.54688,0 -1.01563,-0.46875 -0.46875,-0.54687 -0.46875,-1.01562 l 0,-0.15625 q 0,-0.0781 0.0781,-0.0781 0.9375,-1.79687 2.73437,-2.96875 1.875,-1.25 3.75,-1.875 2.03125,-6.09375 3.51563,-12.26562 1.48437,-6.17188 3.59375,-12.1875 -2.96875,0.85937 -5.70313,2.42187 -2.65625,1.48438 -4.6875,3.82813 -0.625,0.625 -1.01562,1.32812 -0.39063,0.70313 -0.9375,1.32813 -0.23438,0.39062 -0.78125,0.39062 -0.39063,0 -0.85938,-0.3125 -0.46875,-0.3125 -0.46875,-0.85937 0,-0.23438 0.0781,-0.3125 2.10937,-4.21875 5.39062,-6.79688 3.35938,-2.65625 7.34375,-4.0625 3.98438,-1.48437 8.35938,-2.03125 4.45312,-0.625 8.67187,-0.85937 7.03125,-0.3125 13.35938,-1.32813 6.32812,-1.09375 12.8125,-3.98437 0.15625,-0.0781 0.39062,-0.0781 0.54688,0 0.85938,0.46875 0.39062,0.39063 0.39062,0.85938 z"
         style="font-style:normal;font-variant:normal;font-weight:normal;font-stretch:normal;font-size:80px;font-family:Calligraffitti;-inkscape-font-specification:Calligraffitti;text-align:center;text-anchor:middle"
         id="path4146"
         inkscape:connector-curvature="0" />
      <path
         d="m 329.63168,336.02289 q 0,0.39062 -0.23437,0.78125 -0.15625,0.3125 -0.54688,0.39062 -0.9375,0.23438 -2.65625,0.3125 -1.71875,0.0781 -2.8125,0.15625 -3.28125,0.23438 -6.64062,0.39063 -3.28125,0.0781 -6.64063,0.15625 -1.79687,0 -3.51562,0.0781 -1.71875,0.0781 -3.4375,0.0781 -0.85938,0 -2.10938,0 -1.17187,-0.0781 -2.5,-0.23438 -1.25,-0.15625 -2.42187,-0.39062 -1.09375,-0.23438 -1.875,-0.625 -0.3125,-0.15625 -0.54688,-0.46875 -0.15625,-0.39063 -0.15625,-0.70313 0,-0.3125 0.15625,-0.625 0.23438,-0.39062 0.625,-0.54687 0.625,-0.23438 1.64063,-0.39063 1.01562,-0.15625 2.10937,-0.15625 1.17188,-0.0781 2.26563,-0.0781 1.09375,-0.0781 1.79687,-0.0781 2.03125,0 3.98438,0.0781 1.95312,0.0781 3.98437,0.0781 3.35938,0 6.64063,0.15625 3.28125,0.0781 6.64062,0.23438 0.54688,0 1.25,0 0.78125,0 1.48438,0.0781 0.78125,0 1.48437,0.0781 0.70313,0 1.17188,0.0781 0.85937,0.3125 0.85937,1.17188 z"
         style="font-style:normal;font-variant:normal;font-weight:normal;font-stretch:normal;font-size:80px;font-family:Calligraffitti;-inkscape-font-specification:Calligraffitti;text-align:center;text-anchor:middle"
         id="path4148"
         inkscape:connector-curvature="0" />
      <path
         d="m 445.56918,315.47601 q 0,0.15625 -0.0781,0.23438 0,0.0781 0,0.15625 -2.42188,5.39062 -5,10.70312 -2.57813,5.23438 -4.60938,10.85938 0.85938,0 1.64063,0 0.78125,-0.0781 1.64062,-0.0781 0.39063,0 0.85938,0 0.54687,-0.0781 0.9375,0.0781 0.46875,0.0781 0.78125,0.39062 0.3125,0.23438 0.3125,0.85938 0,0.78125 -0.625,1.01562 -0.54688,0.15625 -1.48438,0.39063 -0.85937,0.15625 -1.875,0.3125 -0.9375,0.15625 -1.875,0.3125 -0.85937,0.0781 -1.48437,0.15625 -0.70313,2.03125 -1.32813,4.53125 -0.625,2.42187 -1.09375,5.07812 -0.46875,2.57813 -0.78125,5.15625 -0.3125,2.5 -0.3125,4.60938 0,0.54687 0,1.71875 0.0781,1.09375 0.23438,2.1875 0.23437,1.09375 0.625,1.95312 0.46875,0.85938 1.25,0.85938 1.09375,0 2.5,-1.09375 1.40625,-1.09375 2.73437,-2.5 1.40625,-1.48438 2.57813,-2.89063 1.25,-1.48437 2.03125,-2.26562 0.3125,-0.3125 0.70312,-0.3125 0.46875,0 0.85938,0.39062 0.46875,0.39063 0.46875,0.85938 0,0.23437 -0.23438,0.54687 -0.85937,1.25 -2.26562,3.125 -1.32813,1.79688 -2.96875,3.51563 -1.5625,1.64062 -3.35938,2.8125 -1.71875,1.17187 -3.35937,1.17187 -1.79688,0 -2.89063,-1.25 -1.09375,-1.25 -1.71875,-2.96875 -0.54687,-1.79687 -0.78125,-3.67187 -0.15625,-1.95313 -0.15625,-3.28125 0,-1.875 0.23438,-4.21875 0.3125,-2.34375 0.70312,-4.76563 0.39063,-2.42187 0.9375,-4.6875 0.54688,-2.34375 1.01563,-4.21875 -0.625,0 -1.25,0.0781 -0.54688,0 -1.17188,0 -1.64062,0 -3.35937,-0.0781 -1.71875,-0.0781 -3.35938,-0.3125 -1.64062,-0.3125 -3.20312,-0.9375 -1.5625,-0.70312 -2.8125,-1.875 -0.3125,-0.23437 -0.3125,-0.70312 0,-0.15625 0.46875,-0.78125 0.46875,-0.70313 0.625,-0.70313 2.89062,0 5.70312,0.625 2.8125,0.625 5.70313,0.78125 0.9375,0.0781 1.875,0.0781 1.01562,0 2.03125,0 l 0.23437,0 q 0.85938,-2.65625 2.10938,-5.78125 1.25,-3.125 2.8125,-6.17188 1.5625,-3.04687 3.28125,-5.85937 1.79687,-2.89063 3.67187,-5 0.46875,-0.3125 0.78125,-0.3125 0.46875,0 0.9375,0.39062 0.46875,0.3125 0.46875,0.78125 z"
         style="font-style:normal;font-variant:normal;font-weight:normal;font-stretch:normal;font-size:80px;font-family:Calligraffitti;-inkscape-font-specification:Calligraffitti;text-align:center;text-anchor:middle"
         id="path4150"
         inkscape:connector-curvature="0" />
      <path
         d="m 467.13168,308.44476 q 0,0.46875 -0.39062,1.09375 l -0.0781,0.23438 q 0.15625,0.46875 0.15625,0.70312 -0.54687,0.39063 -0.78125,0.85938 -0.23437,0.39062 -1.09375,0.39062 -0.70312,0 -1.40625,-0.54687 -0.70312,-0.625 -0.70312,-1.48438 0,-1.40625 0.23437,-2.26562 0.3125,-0.9375 2.10938,-0.9375 0.70312,0 1.32812,0.625 0.625,0.625 0.625,1.32812 z m -0.54687,49.84375 q 0,0.39063 -0.23438,0.625 -1.48437,1.79688 -2.89062,3.59375 -1.32813,1.71875 -2.89063,3.20313 -1.48437,1.48437 -3.35937,2.5 -1.875,1.09375 -4.29688,1.5625 -2.10937,-0.9375 -2.89062,-2.5 -0.78125,-1.48438 -0.78125,-3.67188 l 0,-2.8125 q 0,-2.03125 0.39062,-4.21875 0.46875,-2.1875 0.9375,-4.21875 0.70313,-3.04687 1.5625,-6.5625 0.9375,-3.51562 2.10938,-6.95312 1.25,-3.51563 2.8125,-6.71875 1.5625,-3.28125 3.51562,-5.70313 0.39063,-0.39062 0.78125,-0.39062 0.46875,0 0.9375,0.39062 0.46875,0.3125 0.46875,0.85938 l 0,0.15625 q -1.32812,4.14062 -3.04687,8.75 -1.64063,4.53125 -3.20313,9.29687 -1.48437,4.6875 -2.57812,9.375 -1.01563,4.6875 -1.01563,9.0625 0,0.46875 0,1.32813 0.0781,0.85937 0.54688,1.09375 1.71875,-0.3125 3.59375,-1.79688 1.95312,-1.48437 3.59375,-3.125 1.71875,-1.64062 2.96875,-2.96875 1.25,-1.32812 1.71875,-1.32812 0.39062,0 0.78125,0.39062 0.46875,0.39063 0.46875,0.78125 z"
         style="font-style:normal;font-variant:normal;font-weight:normal;font-stretch:normal;font-size:80px;font-family:Calligraffitti;-inkscape-font-specification:Calligraffitti;text-align:center;text-anchor:middle"
         id="path4152"
         inkscape:connector-curvature="0" />
      <path
         d="m 510.17856,304.77289 q 0,0.85937 -0.85938,1.17187 -1.32812,0.54688 -2.5,0.9375 -1.09375,0.3125 -2.42187,0.9375 -3.125,1.5625 -5.70313,3.90625 -2.5,2.26563 -4.60937,5 -2.03125,2.73438 -3.67188,5.78125 -1.5625,3.04688 -2.8125,6.17188 l -0.0781,0.23437 q 1.5625,-0.23437 3.04687,-0.46875 1.5625,-0.23437 3.125,-0.23437 0.78125,0 2.10938,0.15625 1.32812,0.0781 2.03125,0.39062 0.3125,0.15625 0.46875,0.625 0.23437,0.46875 0.23437,0.78125 0,0.23438 -0.15625,0.54688 -0.0781,0.23437 -0.39062,0.39062 -2.73438,1.25 -6.01563,1.5625 -3.28125,0.23438 -6.25,0.54688 -2.73437,6.875 -5.07812,13.75 -2.34375,6.875 -4.6875,13.90625 -1.64063,4.92187 -3.04688,9.92187 -1.40625,5 -3.04687,9.84375 -1.64063,4.92188 -3.75,9.60938 -2.10938,4.76562 -5.07813,9.0625 -1.40625,1.95312 -3.125,3.67187 -1.79687,1.79688 -3.82812,3.125 -2.10938,1.32813 -4.45313,2.10938 -2.34375,0.78125 -4.76562,0.78125 -2.96875,0 -5.85938,-1.09375 -2.96875,-1.01563 -5.54687,-2.73438 -2.65625,-1.71875 -4.84375,-3.98437 -2.1875,-2.26563 -3.67188,-4.76563 -0.15625,-0.46875 -0.15625,-0.625 0,-0.46875 0.39063,-0.78125 0.3125,-0.3125 0.78125,-0.3125 0.54687,0 1.01562,0.46875 0.625,0.85938 1.17188,1.5625 0.54687,0.78125 1.17187,1.5625 2.65625,2.8125 6.01563,4.84375 3.35937,2.03125 7.26562,2.65625 0.46875,0.0781 0.9375,0.0781 0.46875,0.0781 0.9375,0.0781 3.04688,0 5.70313,-1.32812 2.57812,-1.25 4.76562,-3.4375 2.1875,-2.10938 3.98438,-4.92188 1.71875,-2.8125 3.20312,-5.78125 1.40625,-2.96875 2.5,-5.9375 1.01563,-2.89062 1.79688,-5.3125 1.5625,-4.92187 2.89062,-9.84375 1.32813,-4.84375 2.89063,-9.76562 2.1875,-6.5625 4.21875,-12.96875 2.10937,-6.48438 4.53125,-12.89063 -2.57813,0.23438 -5.15625,0.39063 -2.57813,0.15625 -5.15625,0.15625 -0.3125,0 -0.625,-0.46875 -0.23438,-0.54688 -0.23438,-0.85938 0,-0.78125 0.625,-1.01562 0.9375,-0.23438 1.875,-0.39063 1.01563,-0.15625 1.95313,-0.3125 2.03125,-0.39062 4.14062,-0.70312 2.10938,-0.39063 4.21875,-0.78125 0.23438,-0.70313 0.46875,-1.32813 0.3125,-0.70312 0.625,-1.32812 1.64063,-4.14063 3.98438,-8.125 2.34375,-4.0625 5.39062,-7.26563 3.125,-3.28125 7.03125,-5.46875 3.90625,-2.1875 8.59375,-2.65625 l 0.3125,0 q 0.46875,0 0.78125,0.39063 0.39063,0.3125 0.39063,0.78125 z"
         style="font-style:normal;font-variant:normal;font-weight:normal;font-stretch:normal;font-size:80px;font-family:Calligraffitti;-inkscape-font-specification:Calligraffitti;text-align:center;text-anchor:middle"
         id="path4154"
         inkscape:connector-curvature="0" />
      <path
         d="m 529.08481,358.91351 q 0,0.3125 -0.3125,0.625 -1.5625,1.79688 -2.96875,3.51563 -1.40625,1.71875 -3.04688,3.20312 -1.5625,1.48438 -3.51562,2.57813 -1.875,1.09375 -4.29688,1.64062 -3.59375,-1.64062 -3.59375,-5.54687 0,-0.85938 0.15625,-1.71875 0.15625,-0.9375 0.0781,-1.875 -1.09375,1.17187 -2.73438,2.65625 -1.5625,1.40625 -3.4375,2.73437 -1.79687,1.32813 -3.67187,2.1875 -1.875,0.9375 -3.51563,0.9375 -2.1875,0 -3.59375,-0.9375 -1.40625,-0.85937 -2.26562,-2.26562 -0.78125,-1.48438 -1.09375,-3.28125 -0.3125,-1.875 -0.3125,-3.67188 0,-1.875 0.23437,-3.67187 0.39063,-3.75 1.32813,-7.1875 0.9375,-3.51563 2.26562,-6.95313 1.01563,-2.42187 2.10938,-4.76562 1.09375,-2.42188 2.1875,-4.76563 0.39062,-0.78125 0.78125,-1.71875 0.39062,-1.01562 0.85937,-1.64062 0.39063,-0.54688 0.9375,-0.54688 0.39063,0 0.85938,0.39063 0.46875,0.39062 0.46875,0.78125 0,0.54687 -0.23438,1.5625 -0.15625,0.9375 -0.46875,2.03125 -0.23437,1.01562 -0.54687,2.03125 -0.23438,0.9375 -0.46875,1.48437 -0.85938,2.8125 -2.03125,5.625 -1.09375,2.73438 -2.10938,5.625 -0.9375,2.8125 -1.64062,5.70313 -0.625,2.89062 -0.625,5.85937 0,0.85938 0.0781,2.03125 0.0781,1.09375 0.39063,2.1875 0.3125,1.01563 0.9375,1.79688 0.70312,0.70312 1.875,0.70312 1.5625,0 3.51562,-1.01562 2.03125,-1.09375 3.98438,-2.5 2.03125,-1.48438 3.82812,-3.04688 1.79688,-1.5625 2.89063,-2.57812 0.70312,-3.35938 1.875,-7.5 1.25,-4.21875 2.89062,-8.4375 1.64063,-4.21875 3.59375,-7.96875 1.95313,-3.82813 4.21875,-6.40625 0.39063,-0.39063 0.78125,-0.39063 0.46875,0 0.9375,0.39063 0.46875,0.39062 0.46875,0.9375 -0.0781,0.0781 -0.0781,0.15625 -1.48438,4.14062 -3.59375,8.98437 -2.03125,4.76563 -3.90625,9.76563 -1.875,4.92187 -3.20313,9.84375 -1.32812,4.92187 -1.32812,9.375 0,0.3125 0,0.625 0.0781,0.3125 0.39062,0.46875 1.79688,-0.3125 3.75,-1.79688 2.03125,-1.48437 3.75,-3.125 1.79688,-1.71875 3.125,-3.04687 1.32813,-1.32813 1.71875,-1.32813 0.46875,0 0.85938,0.39063 0.46875,0.39062 0.46875,0.85937 z"
         style="font-style:normal;font-variant:normal;font-weight:normal;font-stretch:normal;font-size:80px;font-family:Calligraffitti;-inkscape-font-specification:Calligraffitti;text-align:center;text-anchor:middle"
         id="path4156"
         inkscape:connector-curvature="0" />
      <path
         d="m 554.08481,361.56976 q 0,0.39063 -0.3125,0.70313 -1.25,1.17187 -3.04688,2.65625 -1.79687,1.48437 -3.82812,2.73437 -1.95313,1.25 -4.0625,2.10938 -2.03125,0.85937 -3.75,0.85937 -2.5,0 -3.90625,-1.25 -1.40625,-1.25 -2.1875,-3.04687 -0.70313,-1.875 -0.9375,-3.98438 -0.15625,-2.1875 -0.15625,-4.0625 0,-4.375 0.85937,-8.59375 0.85938,-4.21875 1.875,-8.4375 1.95313,-8.20312 4.6875,-16.01562 2.8125,-7.8125 7.03125,-15.15625 0.78125,-1.40625 1.5625,-2.8125 0.85938,-1.40625 1.79688,-2.65625 0.3125,-0.46875 0.85937,-0.46875 0.46875,0 0.85938,0.3125 0.46875,0.3125 0.46875,0.85937 0,0.23438 -0.0781,0.39063 -3.51562,9.0625 -7.26562,18.04687 -3.75,8.98438 -6.09375,18.4375 -1.09375,4.21875 -2.03125,8.59375 -0.85938,4.29688 -0.85938,8.75 0,1.17188 0,2.57813 0.0781,1.32812 0.39063,2.5 0.39062,1.17187 1.17187,2.03125 0.85938,0.78125 2.42188,0.78125 1.71875,0 3.82812,-1.09375 2.1875,-1.09375 4.14063,-2.42188 2.03125,-1.40625 3.51562,-2.5 1.48438,-1.09375 1.79688,-1.09375 0.46875,0 0.85937,0.39063 0.39063,0.39062 0.39063,0.85937 z"
         style="font-style:normal;font-variant:normal;font-weight:normal;font-stretch:normal;font-size:80px;font-family:Calligraffitti;-inkscape-font-specification:Calligraffitti;text-align:center;text-anchor:middle"
         id="path4158"
         inkscape:connector-curvature="0" />
    </g>
    <path
       style="fill:none;fill-rule:evenodd;stroke:#000000;stroke-width:4;stroke-linecap:round;stroke-linejoin:round;stroke-miterlimit:4;stroke-dasharray:none;stroke-opacity:1"
       d="m 353.74335,311.41269 c 4.34441,-5.00987 -3.81481,-5.85154 -11.2439,-3.09454 -7.72006,4.93143 -10.52432,13.01053 -10.9867,17.75396 -0.72276,7.41444 2.51392,18.31242 9.52936,25.08845 5.50577,5.31786 14.81849,15.15777 16.47126,14.85762 1.97683,-0.35904 27.29576,-23.00033 30.33891,-36.67454 5.55386,-10.83136 3.94746,-24.41837 1.08492,-28.29687 -2.86253,-3.8785 -14.8196,-2.97779 -18.38294,7.32126"
       id="path5410"
       inkscape:connector-curvature="0"
       sodipodi:nodetypes="ccsssczc" />
    <text
       xml:space="preserve"
       style="font-style:normal;font-variant:normal;font-weight:normal;font-stretch:normal;font-size:40px;line-height:125%;font-family:Calligraffitti;-inkscape-font-specification:Calligraffitti;letter-spacing:0px;word-spacing:0px;fill:#000000;fill-opacity:1;stroke:none;stroke-width:1px;stroke-linecap:butt;stroke-linejoin:miter;stroke-opacity:1"
       x="293.44931"
       y="438.18945"
       id="text4160"
       sodipodi:linespacing="125%"><tspan
         sodipodi:role="line"
         id="tspan4162"
         x="293.44931"
         y="438.18945" /></text>
    <g
       style="font-style:normal;font-weight:normal;font-size:40px;line-height:125%;font-family:sans-serif;letter-spacing:0px;word-spacing:0px;fill:#000000;fill-opacity:1;stroke:none;stroke-width:1px;stroke-linecap:butt;stroke-linejoin:miter;stroke-opacity:1"
       id="text4164"
       transform="matrix(1.1475977,0,0,1.1475977,-47.464159,-77.552837)">
      <path
         d="m 243.43121,397.48688 q 0,0.35156 -0.3125,0.54687 -0.82031,0.50781 -1.95312,0.82031 -1.09375,0.27344 -2.26563,0.46875 -1.17187,0.15625 -2.34375,0.27344 -1.13281,0.0781 -2.10937,0.15625 -1.64063,0.11719 -3.39844,0.39063 -1.75781,0.27343 -3.16406,1.17187 -0.11719,0.0781 -0.35156,0.23438 -0.23438,0.15625 -0.3125,0.23437 -0.39063,0.42969 -0.58594,1.05469 -0.19531,0.625 -0.19531,1.17187 0,1.21094 0.625,2.10938 0.625,0.89844 1.52343,1.64062 0.82032,0.66407 1.60157,1.32813 0.82031,0.66406 1.67968,1.32812 0.89844,0.70313 1.83594,1.52344 0.9375,0.82031 1.71875,1.75781 0.78125,0.9375 1.25,2.03125 0.50781,1.09375 0.50781,2.34375 0,1.64063 -0.78125,3.08594 -0.78125,1.40625 -1.79687,2.57813 -1.75781,1.99218 -4.17969,3.16406 -2.38281,1.17187 -5.07812,1.17187 -1.875,0 -3.71094,-0.58593 -1.83594,-0.625 -3.28125,-1.75782 -1.44531,-1.13281 -2.34375,-2.73437 -0.89844,-1.64063 -0.89844,-3.71094 0,-1.75781 0.70313,-3.67187 0.74218,-1.95313 1.875,-3.32032 0.23437,-0.23437 0.46875,-0.23437 0.23437,0 0.39062,0.19531 0.19531,0.15625 0.19531,0.39063 0,0.19531 -0.11718,0.35156 -0.89844,1.36719 -1.52344,2.85156 -0.58594,1.48438 -0.58594,3.20313 0,1.75781 0.74219,3.125 0.78125,1.32812 1.99219,2.26562 1.25,0.9375 2.8125,1.40625 1.5625,0.46875 3.16406,0.46875 2.46094,0 4.375,-1.01562 1.91406,-1.05469 3.55469,-2.8125 0.85937,-0.97657 1.44531,-2.03125 0.58594,-1.05469 0.58594,-2.42188 0,-1.01562 -0.39063,-1.79687 -0.39062,-0.78125 -1.09375,-1.52344 -0.74219,-0.74219 -1.52344,-1.36719 -0.74218,-0.66406 -1.5625,-1.32812 -0.78125,-0.58594 -1.79687,-1.32813 -0.97656,-0.74219 -1.875,-1.5625 -0.89844,-0.85937 -1.60156,-1.79687 -0.70313,-0.97657 -0.89844,-1.99219 -0.0781,-0.3125 -0.11719,-0.625 0,-0.3125 0,-0.625 0,-1.28906 0.42969,-2.30469 0.42969,-1.01562 1.17187,-1.71875 0.78125,-0.74219 1.79688,-1.21094 1.05469,-0.46875 2.26562,-0.70312 1.09375,-0.19531 2.1875,-0.19531 1.09375,-0.0391 2.1875,-0.11719 2.10938,-0.11719 4.17969,-0.19531 2.07031,-0.0781 4.10156,-0.74219 0.0391,0 0.0781,0 0.0391,-0.0391 0.11719,-0.0391 0.23437,0 0.39062,0.19531 0.19531,0.19531 0.19531,0.42969 z"
         style="font-style:normal;font-variant:normal;font-weight:normal;font-stretch:normal;font-family:Calligraffitti;-inkscape-font-specification:Calligraffitti;text-align:center;text-anchor:middle"
         id="path4183"
         inkscape:connector-curvature="0" />
      <path
         d="m 253.2359,401.94 q 0,0.0781 -0.0391,0.11719 0,0.0391 0,0.0781 -1.21094,2.69532 -2.5,5.35157 -1.28906,2.61718 -2.30469,5.42968 0.42969,0 0.82031,0 0.39063,-0.0391 0.82032,-0.0391 0.19531,0 0.42968,0 0.27344,-0.0391 0.46875,0.0391 0.23438,0.0391 0.39063,0.19532 0.15625,0.11718 0.15625,0.42968 0,0.39063 -0.3125,0.50782 -0.27344,0.0781 -0.74219,0.19531 -0.42969,0.0781 -0.9375,0.15625 -0.46875,0.0781 -0.9375,0.15625 -0.42969,0.0391 -0.74219,0.0781 -0.35156,1.01563 -0.66406,2.26563 -0.3125,1.21094 -0.54687,2.53906 -0.23438,1.28906 -0.39063,2.57813 -0.15625,1.25 -0.15625,2.30468 0,0.27344 0,0.85938 0.0391,0.54687 0.11719,1.09375 0.11719,0.54687 0.3125,0.97656 0.23437,0.42969 0.625,0.42969 0.54687,0 1.25,-0.54688 0.70312,-0.54687 1.36719,-1.25 0.70312,-0.74218 1.28906,-1.44531 0.625,-0.74219 1.01562,-1.13281 0.15625,-0.15625 0.35157,-0.15625 0.23437,0 0.42968,0.19531 0.23438,0.19531 0.23438,0.42969 0,0.11719 -0.11719,0.27344 -0.42969,0.625 -1.13281,1.5625 -0.66406,0.89843 -1.48438,1.75781 -0.78125,0.82031 -1.67968,1.40625 -0.85938,0.58594 -1.67969,0.58594 -0.89844,0 -1.44531,-0.625 -0.54688,-0.625 -0.85938,-1.48438 -0.27344,-0.89844 -0.39062,-1.83594 -0.0781,-0.97656 -0.0781,-1.64062 0,-0.9375 0.11719,-2.10938 0.15625,-1.17187 0.35156,-2.38281 0.19531,-1.21094 0.46875,-2.34375 0.27344,-1.17187 0.50781,-2.10937 -0.3125,0 -0.625,0.0391 -0.27343,0 -0.58593,0 -0.82032,0 -1.67969,-0.0391 -0.85938,-0.0391 -1.67969,-0.15625 -0.82031,-0.15625 -1.60156,-0.46875 -0.78125,-0.35157 -1.40625,-0.9375 -0.15625,-0.11719 -0.15625,-0.35157 0,-0.0781 0.23437,-0.39062 0.23438,-0.35156 0.3125,-0.35156 1.44532,0 2.85157,0.3125 1.40625,0.3125 2.85156,0.39062 0.46875,0.0391 0.9375,0.0391 0.50781,0 1.01562,0 l 0.11719,0 q 0.42969,-1.32812 1.05469,-2.89062 0.625,-1.5625 1.40625,-3.08594 0.78125,-1.52344 1.64062,-2.92969 0.89844,-1.44531 1.83594,-2.5 0.23438,-0.15625 0.39063,-0.15625 0.23437,0 0.46875,0.19532 0.23437,0.15625 0.23437,0.39062 z"
         style="font-style:normal;font-variant:normal;font-weight:normal;font-stretch:normal;font-family:Calligraffitti;-inkscape-font-specification:Calligraffitti;text-align:center;text-anchor:middle"
         id="path4185"
         inkscape:connector-curvature="0" />
      <path
         d="m 271.94684,409.16656 q 0,0.15625 -0.0391,0.23438 -1.48438,3.98437 -3.16407,7.8125 -1.67968,3.78906 -3.16406,7.77344 -0.74219,1.91406 -1.32812,3.82812 -0.54688,1.91406 -1.09375,3.90625 -0.11719,0.42969 -0.27344,0.78125 -0.11719,0.39063 -0.27344,0.82031 -0.46875,1.44532 -0.97656,2.8125 -0.50781,1.40625 -1.17188,2.73438 -0.66406,1.32812 -1.52343,2.5 -0.85938,1.21094 -1.95313,2.07031 -1.09375,0.89844 -2.38281,1.40625 -1.28906,0.54688 -2.8125,0.54688 -1.60156,0 -2.96875,-0.58594 -1.40625,-0.54688 -2.57813,-1.52344 -1.17187,-0.9375 -2.07031,-2.26562 -0.9375,-1.28907 -1.64062,-2.8125 -0.0781,-0.15625 -0.0781,-0.27344 -0.0391,-0.3125 0.19531,-0.46875 0.19532,-0.11719 0.42969,-0.11719 0.15625,0 0.27344,0.11719 0.11719,0.11719 0.19531,0.23437 0.27344,0.42969 0.50781,0.89844 0.19532,0.50781 0.50782,0.9375 0.58593,0.82031 1.36718,1.5625 0.74219,0.78125 1.67969,1.32813 0.89844,0.58593 1.91406,0.89843 1.01563,0.35157 2.07032,0.35157 1.60156,0 2.96875,-0.78125 1.95312,-1.17188 3.24218,-3.24219 1.28907,-2.07031 2.22657,-4.57031 0.89843,-2.42188 1.52343,-4.96094 0.66407,-2.5 1.32813,-4.6875 -0.46875,0.42969 -1.13281,0.9375 -0.66407,0.50781 -1.36719,0.9375 -0.70313,0.46875 -1.44531,0.78125 -0.70313,0.3125 -1.28907,0.3125 -1.13281,0 -2.07031,-0.74219 -0.89844,-0.74219 -1.13281,-1.99219 -0.19531,-0.78125 -0.23438,-1.44531 -0.0781,-1.21094 0.0781,-2.53906 0.19531,-1.36719 0.50781,-2.69531 0.35156,-1.36719 0.78125,-2.61719 0.42969,-1.28906 0.89844,-2.34375 0.97656,-2.26563 2.10937,-4.45313 0.23438,-0.42968 0.42969,-0.89843 0.19531,-0.46875 0.46875,-0.89844 0.15625,-0.23438 0.46875,-0.23438 0.19531,0 0.42969,0.23438 0.23437,0.19531 0.27344,0.42969 l -0.11719,0.58593 q -0.35156,1.64063 -0.9375,3.20313 -0.54688,1.5625 -1.17188,3.04687 -0.42968,1.05469 -0.89843,2.22657 -0.42969,1.13281 -0.78125,2.30468 -0.3125,1.17188 -0.50782,2.38282 -0.19531,1.17187 -0.11718,2.34375 0.0391,0.35156 0.0781,0.74218 0.0781,0.39063 0.23438,0.74219 0.15625,0.3125 0.39062,0.54688 0.23438,0.19531 0.625,0.19531 0.66406,0 1.5625,-0.42969 0.89844,-0.46875 1.79688,-1.05469 0.89843,-0.625 1.67968,-1.28906 0.82032,-0.66406 1.32813,-1.13281 1.01562,-2.8125 2.1875,-5.46875 1.17187,-2.69531 2.53906,-5.27344 0.54688,-1.01562 1.09375,-2.07031 0.54688,-1.09375 1.17188,-2.07031 0.15625,-0.27344 0.46875,-0.27344 0.27343,0 0.42968,0.23437 0.19532,0.19532 0.23438,0.46875 z"
         style="font-style:normal;font-variant:normal;font-weight:normal;font-stretch:normal;font-family:Calligraffitti;-inkscape-font-specification:Calligraffitti;text-align:center;text-anchor:middle"
         id="path4187"
         inkscape:connector-curvature="0" />
      <path
         d="m 283.89996,424.98688 q 0,0.19531 -0.15625,0.35156 -0.625,0.58594 -1.52343,1.32812 -0.89844,0.74219 -1.91407,1.36719 -0.97656,0.625 -2.03125,1.05469 -1.01562,0.42969 -1.875,0.42969 -1.25,0 -1.95312,-0.625 -0.70313,-0.625 -1.09375,-1.52344 -0.35156,-0.9375 -0.46875,-1.99219 -0.0781,-1.09375 -0.0781,-2.03125 0,-2.1875 0.42969,-4.29687 0.42969,-2.10938 0.9375,-4.21875 0.97656,-4.10157 2.34375,-8.00782 1.40625,-3.90625 3.51563,-7.57812 0.39062,-0.70313 0.78125,-1.40625 0.42968,-0.70313 0.89843,-1.32813 0.15625,-0.23437 0.42969,-0.23437 0.23438,0 0.42969,0.15625 0.23437,0.15625 0.23437,0.42969 0,0.11718 -0.0391,0.19531 -1.75781,4.53125 -3.63281,9.02344 -1.875,4.49218 -3.04688,9.21875 -0.54687,2.10937 -1.01562,4.29687 -0.42969,2.14844 -0.42969,4.375 0,0.58594 0,1.28906 0.0391,0.66407 0.19531,1.25 0.19532,0.58594 0.58594,1.01563 0.42969,0.39062 1.21094,0.39062 0.85937,0 1.91406,-0.54687 1.09375,-0.54688 2.07031,-1.21094 1.01563,-0.70312 1.75782,-1.25 0.74218,-0.54687 0.89843,-0.54687 0.23438,0 0.42969,0.19531 0.19531,0.19531 0.19531,0.42969 z"
         style="font-style:normal;font-variant:normal;font-weight:normal;font-stretch:normal;font-family:Calligraffitti;-inkscape-font-specification:Calligraffitti;text-align:center;text-anchor:middle"
         id="path4189"
         inkscape:connector-curvature="0" />
      <path
         d="m 297.18121,411.23688 q 0,0.97656 -0.46875,1.95312 -0.46875,0.9375 -1.21093,1.79688 -0.70313,0.85937 -1.5625,1.5625 -0.85938,0.70312 -1.60157,1.21093 -1.13281,0.78125 -2.38281,1.44532 -1.21094,0.66406 -2.65625,0.66406 -0.3125,0 -0.70312,-0.0781 -0.35157,-0.0781 -0.35157,-0.50781 0,-0.54687 0.50782,-0.66406 0.11718,-0.0391 0.27343,-0.0391 0.15625,0 0.3125,-0.0391 0.42969,-0.0781 0.82032,-0.27343 0.42968,-0.19532 0.85937,-0.42969 0.66406,-0.42969 1.67969,-1.21094 1.01562,-0.78125 1.99219,-1.71875 0.97656,-0.9375 1.64062,-1.91406 0.70313,-0.97656 0.70313,-1.83594 0,-0.54687 -0.58594,-0.54687 -0.23438,0 -0.46875,0.0781 -0.23438,0.0781 -0.46875,0.15625 -1.875,0.625 -3.4375,1.91406 -1.5625,1.25 -2.69531,2.92969 -1.13282,1.67969 -1.79688,3.59375 -0.625,1.91406 -0.625,3.82813 0,0.625 0.0781,1.44531 0.11718,0.78125 0.39062,1.48437 0.3125,0.70313 0.82031,1.21094 0.50782,0.46875 1.32813,0.46875 0.3125,0 0.58594,-0.11719 0.27343,-0.0781 0.54687,-0.23437 1.05469,-0.58594 1.95313,-1.5625 0.89843,-1.01563 1.60156,-2.03125 0.19531,-0.23438 0.35156,-0.50781 0.19531,-0.27344 0.39063,-0.54688 0.11718,-0.19531 0.39062,-0.19531 0.23438,0 0.42969,0.15625 0.23437,0.15625 0.23437,0.42969 0,0.0781 -0.0781,0.23437 -0.46875,0.85938 -1.17188,1.91406 -0.70312,1.01563 -1.5625,1.91407 -0.85937,0.89843 -1.875,1.48437 -0.97656,0.625 -2.07031,0.625 -1.21094,0 -2.03125,-0.70312 -0.78125,-0.66407 -1.25,-1.64063 -0.46875,-1.01562 -0.66406,-2.14844 -0.19531,-1.17187 -0.19531,-2.10937 0,-2.96875 1.25,-5.66406 1.25,-2.73438 3.35937,-4.80469 0.625,-0.625 1.44531,-1.25 0.82032,-0.66406 1.71875,-1.17188 0.9375,-0.54687 1.875,-0.85937 0.97657,-0.35156 1.875,-0.35156 1.13282,0 1.79688,0.78125 0.70312,0.74218 0.70312,1.875 z"
         style="font-style:normal;font-variant:normal;font-weight:normal;font-stretch:normal;font-family:Calligraffitti;-inkscape-font-specification:Calligraffitti;text-align:center;text-anchor:middle"
         id="path4191"
         inkscape:connector-curvature="0" />
      <path
         d="m 331.16559,415.57281 q 0,2.42188 -1.01563,4.57032 -1.01562,2.14843 -2.69531,3.82812 0.78125,1.17188 1.5625,2.22656 0.82031,1.05469 1.71875,2.10938 0.19531,0.19531 0.19531,0.46875 0,0.23437 -0.15625,0.39062 -0.15625,0.19532 -0.39062,0.19532 -0.3125,0 -0.9375,-0.58594 -0.58594,-0.54688 -1.25,-1.25 -0.625,-0.74219 -1.21094,-1.44531 -0.54687,-0.70313 -0.74219,-0.97657 -1.75781,1.36719 -3.86718,2.1875 -2.07032,0.82032 -4.29688,0.82032 -0.70312,0 -1.52344,-0.11719 -0.82031,-0.11719 -1.64062,-0.35156 -0.78125,-0.23438 -1.52344,-0.58594 -0.70312,-0.35156 -1.28906,-0.82031 -0.66406,-0.50782 -1.17188,-1.25 -0.46875,-0.78125 -0.82031,-1.64063 -0.3125,-0.89844 -0.50781,-1.79687 -0.15625,-0.89844 -0.15625,-1.71875 0,-2.03125 1.01562,-3.67188 1.05469,-1.64062 2.61719,-2.92969 1.5625,-1.28906 3.35938,-2.30468 1.83593,-1.05469 3.39843,-1.95313 -0.0781,-0.66406 -0.19531,-1.28906 -0.11719,-0.66406 -0.11719,-1.32813 0,-1.32812 0.3125,-2.61718 0.35157,-1.32813 0.97657,-2.5 0.66406,-1.17188 1.60156,-2.10938 0.97656,-0.97656 2.22656,-1.52344 0.35156,-0.15625 0.70313,-0.23437 0.39062,-0.11719 0.78125,-0.11719 1.32812,0 2.26562,0.85938 0.97656,0.85937 0.97656,2.22656 0,0.9375 -0.3125,1.875 -0.27343,0.9375 -0.78125,1.83594 -0.46875,0.85937 -1.09375,1.64062 -0.58593,0.78125 -1.21093,1.40625 -0.85938,0.85938 -1.83594,1.52344 -0.9375,0.66406 -1.95313,1.28906 0.625,3.35938 1.71875,6.60156 1.09375,3.20313 2.8125,6.17188 1.44532,-1.48438 2.34375,-3.32031 0.89844,-1.875 0.89844,-3.98438 0,-0.54687 -0.0781,-1.05469 -0.0781,-0.50781 -0.19532,-1.05468 l 0,-0.15625 q 0,-0.23438 0.15625,-0.39063 0.15625,-0.19531 0.39063,-0.19531 0.46875,0 0.58594,0.46875 0.19531,0.54687 0.27343,1.28906 0.0781,0.70313 0.0781,1.28906 z m -3.86719,-15.15625 q 0,-0.66406 -0.35156,-0.85937 -0.35156,-0.19531 -0.9375,-0.19531 -0.27344,0 -0.42969,0.11718 -1.91406,1.09375 -2.92969,2.8125 -0.97656,1.71875 -0.97656,3.94532 0,0.82031 0.11719,1.5625 0.74219,-0.42969 1.44531,-0.9375 0.70313,-0.50782 1.28906,-1.13282 0.46875,-0.46875 0.9375,-1.09375 0.50782,-0.66406 0.89844,-1.36718 0.42969,-0.70313 0.66406,-1.44532 0.27344,-0.74218 0.27344,-1.40625 z m -1.91406,23.4375 q -1.95313,-2.92968 -3.24219,-6.17187 -1.25,-3.24219 -1.95312,-6.67969 -1.25,0.70313 -2.8125,1.5625 -1.52344,0.85938 -2.89063,1.95313 -1.32812,1.09375 -2.26562,2.46093 -0.9375,1.32813 -0.9375,2.96875 0,0.625 0.11718,1.32813 0.11719,0.70312 0.35157,1.40625 0.27343,0.66406 0.625,1.28906 0.39062,0.58594 0.85937,0.97656 0.97656,0.78125 2.30469,1.17188 1.36719,0.39062 2.61719,0.39062 1.99218,0 3.82812,-0.70312 1.875,-0.74219 3.39844,-1.95313 z"
         style="font-style:normal;font-variant:normal;font-weight:normal;font-stretch:normal;font-family:Calligraffitti;-inkscape-font-specification:Calligraffitti;text-align:center;text-anchor:middle"
         id="path4193"
         inkscape:connector-curvature="0" />
      <path
         d="m 393.15778,399.20563 q 0,1.95312 -1.05469,4.53125 -1.01563,2.57812 -2.69531,5.42968 -1.67969,2.8125 -3.78907,5.70313 -2.10937,2.89062 -4.21875,5.46875 -2.10937,2.57812 -4.0625,4.64844 -1.91406,2.07031 -3.24218,3.28125 -0.15625,0.15625 -0.35157,0.15625 -0.50781,0 -0.66406,-0.50782 l -0.11719,-0.11718 q -0.54687,-1.44532 -0.74218,-2.89063 -0.15625,-1.44531 -0.15625,-2.96875 0,-2.14844 0.0781,-4.25781 0.11719,-2.14844 0.11719,-4.33594 0,-1.36719 -0.0781,-2.69531 -0.0781,-1.32813 -0.27343,-2.69531 -1.52344,2.77343 -3.16407,5.46875 -1.60156,2.65625 -3.35937,5.3125 -1.60156,2.42187 -3.32031,4.84375 -1.67969,2.42187 -3.94532,4.29687 0,0.23438 -0.23437,0.39063 -0.19531,0.15625 -0.39063,0.15625 -0.50781,0 -0.625,-0.42969 -0.15625,-0.66406 -0.15625,-1.52344 0,-0.89844 0,-1.5625 0,-2.65625 0.35157,-5.23437 0.39062,-2.61719 0.70312,-5.23438 0.3125,-2.77344 0.54688,-5.50781 0.27343,-2.73438 0.27343,-5.54688 0,-1.64062 -0.11718,-3.28125 -1.32813,1.13282 -2.89063,1.83594 -1.52344,0.66406 -3.00781,1.5625 -1.48438,0.89844 -2.96875,2.14844 -1.44531,1.21094 -2.14844,2.85156 -0.19531,0.39063 -0.27344,0.74219 -0.0781,0.35156 -0.19531,0.78125 -0.0781,0.35156 -0.50781,0.35156 -0.3125,0 -0.46875,-0.19531 -0.15625,-0.19531 -0.15625,-0.46875 0,-1.44531 0.625,-2.73438 0.625,-1.28906 1.64062,-2.38281 1.05469,-1.13281 2.38282,-2.07031 1.32812,-0.97656 2.73437,-1.75781 1.40625,-0.82032 2.77344,-1.44532 1.40625,-0.625 2.53906,-1.09375 0.23438,-0.11718 0.42969,-0.11718 0.27344,0 0.42969,0.23437 0.19531,0.23438 0.19531,0.46875 0,0.15625 -0.11719,0.27344 0.46875,1.79687 0.58594,3.63281 0.15625,1.83594 0.15625,3.71094 0,2.07031 -0.15625,4.14062 -0.11719,2.03125 -0.35156,4.10157 -0.27344,2.5 -0.50782,5 -0.23437,2.5 -0.58593,5.03906 1.25,-1.83594 2.53906,-3.55469 1.32812,-1.71875 2.57812,-3.55469 1.36719,-1.99218 2.69532,-3.94531 1.32812,-1.99219 2.69531,-3.98437 0.625,-0.9375 1.25,-1.91407 0.625,-0.97656 1.28906,-1.875 0.15625,-0.15625 0.39063,-0.15625 0.23437,0 0.42968,0.19532 0.19532,0.15625 0.27344,0.35156 0.54688,1.40625 0.82031,2.96875 0.3125,1.52344 0.42969,3.125 0.11719,1.5625 0.11719,3.16406 0.0391,1.5625 0.0391,3.04688 0,1.875 0.0391,3.71093 0.0781,1.79688 0,3.67188 2.61719,-3.63281 5.50782,-7.03125 2.92968,-3.39844 5.54687,-7.07031 0.82031,-1.17188 1.91406,-2.8125 1.09375,-1.64063 2.03125,-3.39844 0.97657,-1.79688 1.64063,-3.55469 0.70312,-1.79687 0.70312,-3.24219 0,-0.50781 -0.11718,-1.01562 -0.0781,-0.50781 -0.39063,-0.9375 -0.54687,-0.85938 -1.5625,-1.25 -1.01562,-0.39063 -1.99219,-0.50781 -0.27343,-0.0781 -0.54687,-0.0391 -0.27344,0 -0.50781,-0.0781 -0.46875,-0.0391 -0.46875,-0.58594 0,-0.23437 0.11718,-0.39062 0.15625,-0.19532 0.42969,-0.19532 1.32813,0 2.5,0.27344 1.21094,0.27344 2.10938,0.89844 0.9375,0.625 1.48437,1.64062 0.54688,1.01563 0.54688,2.53907 z"
         style="font-style:normal;font-variant:normal;font-weight:normal;font-stretch:normal;font-family:Calligraffitti;-inkscape-font-specification:Calligraffitti;text-align:center;text-anchor:middle"
         id="path4195"
         inkscape:connector-curvature="0" />
      <path
         d="m 402.64996,411.23688 q 0,0.97656 -0.46875,1.95312 -0.46875,0.9375 -1.21093,1.79688 -0.70313,0.85937 -1.5625,1.5625 -0.85938,0.70312 -1.60157,1.21093 -1.13281,0.78125 -2.38281,1.44532 -1.21094,0.66406 -2.65625,0.66406 -0.3125,0 -0.70312,-0.0781 -0.35157,-0.0781 -0.35157,-0.50781 0,-0.54687 0.50782,-0.66406 0.11718,-0.0391 0.27343,-0.0391 0.15625,0 0.3125,-0.0391 0.42969,-0.0781 0.82032,-0.27343 0.42968,-0.19532 0.85937,-0.42969 0.66406,-0.42969 1.67969,-1.21094 1.01562,-0.78125 1.99219,-1.71875 0.97656,-0.9375 1.64062,-1.91406 0.70313,-0.97656 0.70313,-1.83594 0,-0.54687 -0.58594,-0.54687 -0.23438,0 -0.46875,0.0781 -0.23438,0.0781 -0.46875,0.15625 -1.875,0.625 -3.4375,1.91406 -1.5625,1.25 -2.69531,2.92969 -1.13282,1.67969 -1.79688,3.59375 -0.625,1.91406 -0.625,3.82813 0,0.625 0.0781,1.44531 0.11718,0.78125 0.39062,1.48437 0.3125,0.70313 0.82031,1.21094 0.50782,0.46875 1.32813,0.46875 0.3125,0 0.58594,-0.11719 0.27343,-0.0781 0.54687,-0.23437 1.05469,-0.58594 1.95313,-1.5625 0.89843,-1.01563 1.60156,-2.03125 0.19531,-0.23438 0.35156,-0.50781 0.19531,-0.27344 0.39063,-0.54688 0.11718,-0.19531 0.39062,-0.19531 0.23438,0 0.42969,0.15625 0.23437,0.15625 0.23437,0.42969 0,0.0781 -0.0781,0.23437 -0.46875,0.85938 -1.17188,1.91406 -0.70312,1.01563 -1.5625,1.91407 -0.85937,0.89843 -1.875,1.48437 -0.97656,0.625 -2.07031,0.625 -1.21094,0 -2.03125,-0.70312 -0.78125,-0.66407 -1.25,-1.64063 -0.46875,-1.01562 -0.66406,-2.14844 -0.19531,-1.17187 -0.19531,-2.10937 0,-2.96875 1.25,-5.66406 1.25,-2.73438 3.35937,-4.80469 0.625,-0.625 1.44531,-1.25 0.82032,-0.66406 1.71875,-1.17188 0.9375,-0.54687 1.875,-0.85937 0.97657,-0.35156 1.875,-0.35156 1.13282,0 1.79688,0.78125 0.70312,0.74218 0.70312,1.875 z"
         style="font-style:normal;font-variant:normal;font-weight:normal;font-stretch:normal;font-family:Calligraffitti;-inkscape-font-specification:Calligraffitti;text-align:center;text-anchor:middle"
         id="path4197"
         inkscape:connector-curvature="0" />
      <path
         d="m 415.38434,424.98688 q 0,0.19531 -0.15625,0.35156 -0.625,0.58594 -1.52344,1.32812 -0.89844,0.74219 -1.91406,1.36719 -0.97656,0.625 -2.03125,1.05469 -1.01563,0.42969 -1.875,0.42969 -1.25,0 -1.95313,-0.625 -0.70312,-0.625 -1.09375,-1.52344 -0.35156,-0.9375 -0.46875,-1.99219 -0.0781,-1.09375 -0.0781,-2.03125 0,-2.1875 0.42969,-4.29687 0.42968,-2.10938 0.9375,-4.21875 0.97656,-4.10157 2.34375,-8.00782 1.40625,-3.90625 3.51562,-7.57812 0.39063,-0.70313 0.78125,-1.40625 0.42969,-0.70313 0.89844,-1.32813 0.15625,-0.23437 0.42969,-0.23437 0.23437,0 0.42968,0.15625 0.23438,0.15625 0.23438,0.42969 0,0.11718 -0.0391,0.19531 -1.75782,4.53125 -3.63282,9.02344 -1.875,4.49218 -3.04687,9.21875 -0.54688,2.10937 -1.01563,4.29687 -0.42968,2.14844 -0.42968,4.375 0,0.58594 0,1.28906 0.0391,0.66407 0.19531,1.25 0.19531,0.58594 0.58594,1.01563 0.42968,0.39062 1.21093,0.39062 0.85938,0 1.91407,-0.54687 1.09375,-0.54688 2.07031,-1.21094 1.01562,-0.70312 1.75781,-1.25 0.74219,-0.54687 0.89844,-0.54687 0.23437,0 0.42969,0.19531 0.19531,0.19531 0.19531,0.42969 z"
         style="font-style:normal;font-variant:normal;font-weight:normal;font-stretch:normal;font-family:Calligraffitti;-inkscape-font-specification:Calligraffitti;text-align:center;text-anchor:middle"
         id="path4199"
         inkscape:connector-curvature="0" />
      <path
         d="m 427.33746,424.98688 q 0,0.19531 -0.15625,0.35156 -0.625,0.58594 -1.52343,1.32812 -0.89844,0.74219 -1.91407,1.36719 -0.97656,0.625 -2.03125,1.05469 -1.01562,0.42969 -1.875,0.42969 -1.25,0 -1.95312,-0.625 -0.70313,-0.625 -1.09375,-1.52344 -0.35156,-0.9375 -0.46875,-1.99219 -0.0781,-1.09375 -0.0781,-2.03125 0,-2.1875 0.42969,-4.29687 0.42969,-2.10938 0.9375,-4.21875 0.97656,-4.10157 2.34375,-8.00782 1.40625,-3.90625 3.51563,-7.57812 0.39062,-0.70313 0.78125,-1.40625 0.42968,-0.70313 0.89843,-1.32813 0.15625,-0.23437 0.42969,-0.23437 0.23438,0 0.42969,0.15625 0.23437,0.15625 0.23437,0.42969 0,0.11718 -0.0391,0.19531 -1.75781,4.53125 -3.63281,9.02344 -1.875,4.49218 -3.04688,9.21875 -0.54687,2.10937 -1.01562,4.29687 -0.42969,2.14844 -0.42969,4.375 0,0.58594 0,1.28906 0.0391,0.66407 0.19531,1.25 0.19532,0.58594 0.58594,1.01563 0.42969,0.39062 1.21094,0.39062 0.85937,0 1.91406,-0.54687 1.09375,-0.54688 2.07031,-1.21094 1.01563,-0.70312 1.75782,-1.25 0.74218,-0.54687 0.89843,-0.54687 0.23438,0 0.42969,0.19531 0.19531,0.19531 0.19531,0.42969 z"
         style="font-style:normal;font-variant:normal;font-weight:normal;font-stretch:normal;font-family:Calligraffitti;-inkscape-font-specification:Calligraffitti;text-align:center;text-anchor:middle"
         id="path4201"
         inkscape:connector-curvature="0" />
      <path
         d="m 447.22028,412.21344 q 0,0.19531 -0.11719,0.39062 -0.0781,0.15625 -0.27344,0.19532 -0.46875,0.11718 -1.32812,0.15625 -0.85938,0.0391 -1.40625,0.0781 -1.64063,0.11719 -3.32032,0.19531 -1.64062,0.0391 -3.32031,0.0781 -0.89844,0 -1.75781,0.0391 -0.85938,0.0391 -1.71875,0.0391 -0.42969,0 -1.05469,0 -0.58594,-0.0391 -1.25,-0.11718 -0.625,-0.0781 -1.21094,-0.19532 -0.54687,-0.11718 -0.9375,-0.3125 -0.15625,-0.0781 -0.27343,-0.23437 -0.0781,-0.19531 -0.0781,-0.35156 0,-0.15625 0.0781,-0.3125 0.11718,-0.19532 0.3125,-0.27344 0.3125,-0.11719 0.82031,-0.19531 0.50781,-0.0781 1.05469,-0.0781 0.58593,-0.0391 1.13281,-0.0391 0.54687,-0.0391 0.89844,-0.0391 1.01562,0 1.99218,0.0391 0.97657,0.0391 1.99219,0.0391 1.67969,0 3.32031,0.0781 1.64063,0.0391 3.32032,0.11718 0.27343,0 0.625,0 0.39062,0 0.74218,0.0391 0.39063,0 0.74219,0.0391 0.35156,0 0.58594,0.0391 0.42969,0.15625 0.42969,0.58594 z"
         style="font-style:normal;font-variant:normal;font-weight:normal;font-stretch:normal;font-family:Calligraffitti;-inkscape-font-specification:Calligraffitti;text-align:center;text-anchor:middle"
         id="path4203"
         inkscape:connector-curvature="0" />
      <path
         d="m 461.24371,413.61969 q 0,1.17187 -0.3125,2.34375 -0.3125,1.13281 -0.9375,2.10937 -2.10937,3.39844 -5,6.21094 -2.85156,2.77344 -6.32812,4.6875 l 0,0.15625 q 0,0.19531 -0.23438,0.39063 -0.19531,0.23437 -0.39062,0.23437 -0.50781,0 -0.50781,-0.46875 -0.35157,-0.19531 -0.35157,-0.58594 0,-0.15625 0.11719,-0.35156 -0.42969,-2.26562 -0.42969,-4.45312 0,-3.78907 0.9375,-7.42188 0.9375,-3.67187 2.1875,-7.22656 0.70313,-1.99219 1.5625,-3.98438 0.89844,-1.99218 1.99219,-3.86718 1.13281,-1.91407 2.5,-3.59375 1.40625,-1.71875 3.04688,-3.08594 0.11718,-0.11719 0.27343,-0.11719 0.27344,0 0.46875,0.19531 0.19532,0.19532 0.19532,0.42969 0,0.19531 -0.0781,0.27344 -1.40625,2.10937 -2.65625,3.94531 -1.21094,1.83594 -2.26562,3.71094 -1.05469,1.83594 -1.99219,3.86719 -0.9375,1.99218 -1.75781,4.45312 1.32812,-1.21094 2.8125,-2.07031 1.48437,-0.89844 3.35937,-0.89844 0.3125,0 0.46875,0.0391 0.19531,0.0391 0.54688,0.23438 0.39062,0.19531 0.58593,0.3125 1.17188,0.78125 1.67969,1.99219 0.50781,1.17187 0.50781,2.53906 z m -1.83593,0.0391 q 0,-0.50781 -0.15625,-1.09375 -0.11719,-0.625 -0.39063,-1.13281 -0.23437,-0.54688 -0.66406,-0.89844 -0.42969,-0.35156 -1.01563,-0.35156 -0.89843,0 -1.83593,0.39062 -0.89844,0.35157 -1.75782,0.89844 -0.85937,0.54688 -1.64062,1.21094 -0.78125,0.625 -1.44531,1.17187 -0.89844,2.8125 -1.5625,5.66407 -0.625,2.85156 -0.625,5.78125 0,1.01562 0.11718,2.07031 0.82032,-0.70313 1.95313,-1.67969 1.13281,-1.01562 2.34375,-2.14844 1.21094,-1.13281 2.38281,-2.38281 1.21094,-1.25 2.14844,-2.53906 0.97656,-1.28906 1.5625,-2.53906 0.58594,-1.25 0.58594,-2.42188 z"
         style="font-style:normal;font-variant:normal;font-weight:normal;font-stretch:normal;font-family:Calligraffitti;-inkscape-font-specification:Calligraffitti;text-align:center;text-anchor:middle"
         id="path4205"
         inkscape:connector-curvature="0" />
      <path
         d="m 475.93121,411.23688 q 0,0.97656 -0.46875,1.95312 -0.46875,0.9375 -1.21093,1.79688 -0.70313,0.85937 -1.5625,1.5625 -0.85938,0.70312 -1.60157,1.21093 -1.13281,0.78125 -2.38281,1.44532 -1.21094,0.66406 -2.65625,0.66406 -0.3125,0 -0.70312,-0.0781 -0.35157,-0.0781 -0.35157,-0.50781 0,-0.54687 0.50782,-0.66406 0.11718,-0.0391 0.27343,-0.0391 0.15625,0 0.3125,-0.0391 0.42969,-0.0781 0.82032,-0.27343 0.42968,-0.19532 0.85937,-0.42969 0.66406,-0.42969 1.67969,-1.21094 1.01562,-0.78125 1.99219,-1.71875 0.97656,-0.9375 1.64062,-1.91406 0.70313,-0.97656 0.70313,-1.83594 0,-0.54687 -0.58594,-0.54687 -0.23438,0 -0.46875,0.0781 -0.23438,0.0781 -0.46875,0.15625 -1.875,0.625 -3.4375,1.91406 -1.5625,1.25 -2.69531,2.92969 -1.13282,1.67969 -1.79688,3.59375 -0.625,1.91406 -0.625,3.82813 0,0.625 0.0781,1.44531 0.11718,0.78125 0.39062,1.48437 0.3125,0.70313 0.82031,1.21094 0.50782,0.46875 1.32813,0.46875 0.3125,0 0.58594,-0.11719 0.27343,-0.0781 0.54687,-0.23437 1.05469,-0.58594 1.95313,-1.5625 0.89843,-1.01563 1.60156,-2.03125 0.19531,-0.23438 0.35156,-0.50781 0.19531,-0.27344 0.39063,-0.54688 0.11718,-0.19531 0.39062,-0.19531 0.23438,0 0.42969,0.15625 0.23437,0.15625 0.23437,0.42969 0,0.0781 -0.0781,0.23437 -0.46875,0.85938 -1.17188,1.91406 -0.70312,1.01563 -1.5625,1.91407 -0.85937,0.89843 -1.875,1.48437 -0.97656,0.625 -2.07031,0.625 -1.21094,0 -2.03125,-0.70312 -0.78125,-0.66407 -1.25,-1.64063 -0.46875,-1.01562 -0.66406,-2.14844 -0.19531,-1.17187 -0.19531,-2.10937 0,-2.96875 1.25,-5.66406 1.25,-2.73438 3.35937,-4.80469 0.625,-0.625 1.44531,-1.25 0.82032,-0.66406 1.71875,-1.17188 0.9375,-0.54687 1.875,-0.85937 0.97657,-0.35156 1.875,-0.35156 1.13282,0 1.79688,0.78125 0.70312,0.74218 0.70312,1.875 z"
         style="font-style:normal;font-variant:normal;font-weight:normal;font-stretch:normal;font-family:Calligraffitti;-inkscape-font-specification:Calligraffitti;text-align:center;text-anchor:middle"
         id="path4207"
         inkscape:connector-curvature="0" />
      <path
         d="m 486.12653,398.42438 q 0,0.23437 -0.19532,0.54687 l -0.0391,0.11719 q 0.0781,0.23437 0.0781,0.35156 -0.27344,0.19531 -0.39063,0.42969 -0.11719,0.19531 -0.54687,0.19531 -0.35157,0 -0.70313,-0.27344 -0.35156,-0.3125 -0.35156,-0.74218 0,-0.70313 0.11719,-1.13282 0.15625,-0.46875 1.05468,-0.46875 0.35157,0 0.66407,0.3125 0.3125,0.3125 0.3125,0.66407 z m -0.27344,24.92187 q 0,0.19531 -0.11719,0.3125 -0.74219,0.89844 -1.44531,1.79688 -0.66406,0.85937 -1.44531,1.60156 -0.74219,0.74219 -1.67969,1.25 -0.9375,0.54687 -2.14844,0.78125 -1.05469,-0.46875 -1.44531,-1.25 -0.39063,-0.74219 -0.39063,-1.83594 l 0,-1.40625 q 0,-1.01562 0.19532,-2.10937 0.23437,-1.09375 0.46875,-2.10938 0.35156,-1.52344 0.78125,-3.28125 0.46875,-1.75781 1.05468,-3.47656 0.625,-1.75781 1.40625,-3.35938 0.78125,-1.64062 1.75782,-2.85156 0.19531,-0.19531 0.39062,-0.19531 0.23438,0 0.46875,0.19531 0.23438,0.15625 0.23438,0.42969 l 0,0.0781 q -0.66407,2.07032 -1.52344,4.375 -0.82031,2.26563 -1.60156,4.64844 -0.74219,2.34375 -1.28907,4.6875 -0.50781,2.34375 -0.50781,4.53125 0,0.23438 0,0.66406 0.0391,0.42969 0.27344,0.54688 0.85937,-0.15625 1.79687,-0.89844 0.97657,-0.74219 1.79688,-1.5625 0.85937,-0.82031 1.48437,-1.48437 0.625,-0.66407 0.85938,-0.66407 0.19531,0 0.39062,0.19532 0.23438,0.19531 0.23438,0.39062 z"
         style="font-style:normal;font-variant:normal;font-weight:normal;font-stretch:normal;font-family:Calligraffitti;-inkscape-font-specification:Calligraffitti;text-align:center;text-anchor:middle"
         id="path4209"
         inkscape:connector-curvature="0" />
      <path
         d="m 504.64215,424.90875 q 0,0.23438 -0.19531,0.35156 -0.42969,0.35157 -1.01563,0.78125 -0.58593,0.42969 -1.25,0.85938 -0.66406,0.39062 -1.32812,0.74219 -0.625,0.35156 -1.13281,0.54687 -0.89844,0.39063 -1.67969,0.39063 -1.17188,0 -1.71875,-0.85938 -0.50781,-0.82031 -0.50781,-1.83594 0,-1.21093 0.39062,-2.73437 0.39063,-1.5625 0.9375,-3.16406 0.54688,-1.60157 1.13281,-3.125 0.625,-1.5625 1.05469,-2.73438 0.42969,-1.13281 0.78125,-2.26562 0.35156,-1.17188 0.46875,-2.42188 -0.70312,0.0781 -1.91406,0.78125 -1.21094,0.70313 -2.53906,1.64063 -1.28907,0.89843 -2.46094,1.79687 -1.17188,0.89844 -1.83594,1.36719 l -1.40625,2.8125 q -0.9375,1.83594 -1.79687,3.67187 -0.82032,1.79688 -1.60157,3.67188 -0.35156,0.89844 -0.66406,1.79687 -0.3125,0.89844 -0.70312,1.79688 -0.11719,0.3125 -0.42969,0.3125 -0.15625,0 -0.39063,-0.19531 -0.27343,-0.19532 -0.27343,-0.35157 0,-0.0391 0.0781,-0.27343 0.0391,-0.19532 0.11719,-0.46875 0.0391,-0.27344 0.11719,-0.50782 0.0391,-0.23437 0.0391,-0.3125 0.66406,-2.57812 1.60156,-5.07812 0.97656,-2.5 2.14844,-4.92188 0.54687,-1.13281 1.05469,-2.26562 0.50781,-1.17188 1.05468,-2.30469 0.23438,-0.42969 0.54688,-1.05469 0.35156,-0.625 0.70312,-1.25 0.39063,-0.66406 0.78125,-1.21093 0.39063,-0.58594 0.74219,-0.89844 0.15625,-0.15625 0.35156,-0.15625 0.15625,0 0.42969,0.23437 0.27344,0.19532 0.27344,0.39063 0,0.11719 -0.15625,0.54687 -0.11719,0.42969 -0.3125,0.9375 -0.19531,0.46875 -0.39063,0.9375 -0.15625,0.42969 -0.19531,0.58594 0.66406,-0.625 1.52344,-1.36719 0.89844,-0.74218 1.875,-1.36718 1.01562,-0.625 2.07031,-1.01563 1.05469,-0.42969 1.99219,-0.42969 0.54687,0 1.01562,0.50782 0.50782,0.46875 0.58594,1.01562 0.0781,0.39063 0.0781,0.58594 0,0.66406 -0.27344,1.64062 -0.23438,0.9375 -0.46875,1.60157 -0.39063,1.13281 -1.13281,3.00781 -0.74219,1.83594 -1.48438,3.78906 -0.74219,1.95313 -1.28906,3.75 -0.54688,1.79688 -0.54688,2.8125 0,0.42969 0.0781,0.74219 0.0781,0.27344 0.58594,0.27344 0.70312,0 1.64062,-0.42969 0.97656,-0.42969 1.875,-0.9375 0.89844,-0.54688 1.5625,-0.97656 0.66406,-0.42969 0.82031,-0.42969 0.23438,0 0.39063,0.23437 0.19531,0.19532 0.19531,0.42969 z"
         style="font-style:normal;font-variant:normal;font-weight:normal;font-stretch:normal;font-family:Calligraffitti;-inkscape-font-specification:Calligraffitti;text-align:center;text-anchor:middle"
         id="path4211"
         inkscape:connector-curvature="0" />
      <path
         d="m 519.99371,409.71344 q 0,0.0781 -0.0781,0.23437 -0.0781,0.66407 -0.15625,1.28907 -0.0391,0.58593 -0.15625,1.21093 -0.19531,1.28907 -0.42969,2.53907 -0.23437,1.25 -0.50781,2.5 -0.97656,4.49218 -2.42188,8.82812 -1.40625,4.33594 -3.125,8.59375 -0.625,1.52344 -1.32812,3.04688 -0.66406,1.5625 -1.52344,3.00781 -0.82031,1.48437 -1.83594,2.8125 -1.01562,1.32812 -2.30468,2.42187 -1.79688,1.60157 -4.14063,1.60157 -1.25,0 -2.42187,-0.42969 -1.17188,-0.42969 -2.1875,-1.17188 -1.01563,-0.70312 -1.79688,-1.71875 -0.82031,-0.97656 -1.25,-2.10937 -0.0391,-0.0391 -0.0391,-0.19531 0,-0.23438 0.19531,-0.39063 0.19531,-0.15625 0.42969,-0.15625 0.27344,0 0.46875,0.27344 0.19531,0.35156 0.39062,0.70312 0.15625,0.35157 0.42969,0.66407 1.01563,1.25 2.5,2.07031 1.44531,0.85937 3.04688,0.85937 1.83593,0 3.24218,-1.28906 1.09375,-0.97656 2.07032,-2.38281 0.97656,-1.40625 1.83593,-3.04688 0.89844,-1.64062 1.64063,-3.4375 0.78125,-1.79687 1.40625,-3.59375 0.66406,-1.75781 1.21094,-3.4375 0.54687,-1.67968 1.01562,-3.08593 -1.40625,1.36718 -3.04687,2.14843 -1.64063,0.78125 -3.63282,0.78125 -0.0391,0 -0.11718,0 -0.0781,0 -0.11719,-0.0391 -0.89844,-0.19531 -1.52344,-0.70312 -0.58594,-0.50782 -0.97656,-1.17188 -0.35156,-0.70312 -0.50781,-1.48437 -0.15625,-0.82032 -0.15625,-1.64063 0,-2.34375 0.66406,-4.64844 0.70312,-2.30468 2.07031,-4.25781 0.85938,-1.17187 1.95313,-2.26562 1.09375,-1.13282 2.38281,-1.95313 1.28906,-0.85937 2.73437,-1.36719 1.44532,-0.54687 2.96875,-0.54687 0.23438,0 0.74219,0.0391 0.50781,0.0391 1.01563,0.15625 0.54687,0.0781 0.9375,0.27344 0.42968,0.19531 0.42968,0.46875 z m -1.36718,0.46875 q -0.58594,-0.15625 -1.32813,-0.15625 -1.36719,0 -2.69531,0.50781 -1.32813,0.50781 -2.5,1.36719 -1.17188,0.82031 -2.14844,1.875 -0.97656,1.05469 -1.71875,2.10937 -1.09375,1.64063 -1.67969,3.63282 -0.54687,1.99218 -0.54687,3.98437 0,0.42969 0.0391,1.01563 0.0781,0.58593 0.23438,1.13281 0.19531,0.50781 0.54687,0.89844 0.39063,0.35156 0.97656,0.35156 1.21094,0 2.34375,-0.58594 1.17188,-0.58594 2.14844,-1.48437 0.97656,-0.89844 1.71875,-1.99219 0.78125,-1.13281 1.25,-2.14844 1.17188,-2.53906 1.875,-5.19531 0.74219,-2.65625 1.48438,-5.3125 z"
         style="font-style:normal;font-variant:normal;font-weight:normal;font-stretch:normal;font-family:Calligraffitti;-inkscape-font-specification:Calligraffitti;text-align:center;text-anchor:middle"
         id="path4213"
         inkscape:connector-curvature="0" />
      <path
         d="m 291.71246,448.19 q 0,0.27344 -0.35156,0.58594 -0.35156,0.27344 -0.54687,0.46875 -0.39063,0.42969 -0.74219,0.9375 -0.35156,0.46875 -0.70313,0.97656 -2.34375,3.32031 -4.0625,6.99219 -1.67968,3.63281 -3.04687,7.42187 -0.82031,2.30469 -1.44531,4.6875 -0.58594,2.38282 -1.17188,4.80469 -0.54687,2.38281 -1.17187,4.76563 -0.625,2.38281 -1.48438,4.6875 -0.82031,2.22656 -1.95312,4.14062 -1.13282,1.95313 -2.65625,3.35938 -1.52344,1.40625 -3.51563,2.1875 -2.03125,0.82031 -4.60937,0.82031 -1.875,0 -3.67188,-0.58594 -1.83594,-0.54687 -3.32031,-1.71875 -1.44531,-1.13281 -2.07031,-2.65625 -0.625,-1.52344 -0.625,-3.28125 0,-2.1875 0.82031,-4.375 0.78125,-2.1875 2.14844,-4.17969 1.32812,-1.95312 3.08593,-3.51562 1.71875,-1.60156 3.63282,-2.53906 0.23437,-0.0781 0.3125,-0.0781 0.23437,0 0.39062,0.19531 0.15625,0.15625 0.15625,0.39063 0,0.35156 -0.3125,0.54687 -0.42969,0.23438 -0.82031,0.46875 -0.39063,0.23438 -0.78125,0.50782 -1.95313,1.36718 -3.39844,3.24218 -1.44531,1.875 -2.42187,4.02344 -0.54688,1.21094 -0.85938,2.46094 -0.3125,1.28906 -0.3125,2.57812 0,1.44532 0.50781,2.69532 0.46875,1.25 1.60157,2.14843 1.25,0.9375 2.8125,1.36719 1.5625,0.42969 3.04687,0.42969 2.26563,0 4.02344,-0.74219 1.71875,-0.70312 3.00781,-1.99219 1.28906,-1.25 2.22656,-2.96875 0.97657,-1.67968 1.67969,-3.63281 0.85938,-2.30469 1.44531,-4.6875 0.625,-2.38281 1.13282,-4.76562 0.54687,-2.42188 1.13281,-4.80469 0.58594,-2.38281 1.40625,-4.72656 1.25,-3.51563 2.89062,-6.83594 1.67969,-3.35938 3.90625,-6.32813 -0.70312,0.35157 -1.44531,0.70313 -0.70312,0.35156 -1.36719,0.78125 -1.67968,1.01562 -3.28125,2.38281 -1.60156,1.36719 -2.30468,3.24219 -0.15625,0.35156 -0.23438,0.70312 -0.0391,0.3125 -0.11719,0.66407 -0.0391,0.15625 -0.19531,0.27343 -0.15625,0.0781 -0.3125,0.0781 -0.15625,0 -0.42969,-0.11719 -0.23437,-0.15625 -0.23437,-0.35156 0,-1.44531 0.50781,-2.69531 0.54688,-1.25 1.36719,-2.30469 0.85937,-1.09375 1.95312,-1.95313 1.09375,-0.89843 2.22657,-1.60156 1.83593,-1.13281 3.75,-2.1875 1.95312,-1.05469 3.98437,-1.79687 l 0.11719,0 q 0.19531,0 0.42969,0.23437 0.27343,0.23438 0.27343,0.46875 z"
         style="font-style:normal;font-variant:normal;font-weight:normal;font-stretch:normal;font-family:Calligraffitti;-inkscape-font-specification:Calligraffitti;text-align:center;text-anchor:middle"
         id="path4215"
         inkscape:connector-curvature="0" />
      <path
         d="m 306.79059,473.65875 q 0,0.15625 -0.15625,0.3125 -0.78125,0.89844 -1.48438,1.75781 -0.70312,0.85938 -1.52343,1.60157 -0.78125,0.74218 -1.75782,1.28906 -0.9375,0.54687 -2.14843,0.82031 -1.79688,-0.82031 -1.79688,-2.77344 0,-0.42968 0.0781,-0.85937 0.0781,-0.46875 0.0391,-0.9375 -0.54688,0.58594 -1.36719,1.32812 -0.78125,0.70313 -1.71875,1.36719 -0.89844,0.66406 -1.83594,1.09375 -0.9375,0.46875 -1.75781,0.46875 -1.09375,0 -1.79687,-0.46875 -0.70313,-0.42969 -1.13282,-1.13281 -0.39062,-0.74219 -0.54687,-1.64063 -0.15625,-0.9375 -0.15625,-1.83593 0,-0.9375 0.11719,-1.83594 0.19531,-1.875 0.66406,-3.59375 0.46875,-1.75781 1.13281,-3.47656 0.50781,-1.21094 1.05469,-2.38282 0.54687,-1.21093 1.09375,-2.38281 0.19531,-0.39062 0.39062,-0.85937 0.19532,-0.50782 0.42969,-0.82032 0.19531,-0.27343 0.46875,-0.27343 0.19531,0 0.42969,0.19531 0.23437,0.19531 0.23437,0.39062 0,0.27344 -0.11718,0.78125 -0.0781,0.46875 -0.23438,1.01563 -0.11719,0.50781 -0.27344,1.01562 -0.11718,0.46875 -0.23437,0.74219 -0.42969,1.40625 -1.01563,2.8125 -0.54687,1.36719 -1.05468,2.8125 -0.46875,1.40625 -0.82032,2.85156 -0.3125,1.44532 -0.3125,2.92969 0,0.42969 0.0391,1.01563 0.0391,0.54687 0.19531,1.09375 0.15625,0.50781 0.46875,0.89843 0.35156,0.35157 0.9375,0.35157 0.78125,0 1.75781,-0.50782 1.01563,-0.54687 1.99219,-1.25 1.01562,-0.74218 1.91406,-1.52343 0.89844,-0.78125 1.44531,-1.28907 0.35157,-1.67968 0.9375,-3.75 0.625,-2.10937 1.44532,-4.21875 0.82031,-2.10937 1.79687,-3.98437 0.97656,-1.91406 2.10938,-3.20313 0.19531,-0.19531 0.39062,-0.19531 0.23438,0 0.46875,0.19531 0.23438,0.19532 0.23438,0.46875 -0.0391,0.0391 -0.0391,0.0781 -0.74218,2.07031 -1.79687,4.49219 -1.01563,2.38281 -1.95313,4.88281 -0.9375,2.46094 -1.60156,4.92187 -0.66406,2.46094 -0.66406,4.6875 0,0.15625 0,0.3125 0.0391,0.15625 0.19531,0.23438 0.89844,-0.15625 1.875,-0.89844 1.01563,-0.74219 1.875,-1.5625 0.89844,-0.85937 1.5625,-1.52344 0.66406,-0.66406 0.85938,-0.66406 0.23437,0 0.42968,0.19531 0.23438,0.19532 0.23438,0.42969 z"
         style="font-style:normal;font-variant:normal;font-weight:normal;font-stretch:normal;font-family:Calligraffitti;-inkscape-font-specification:Calligraffitti;text-align:center;text-anchor:middle"
         id="path4217"
         inkscape:connector-curvature="0" />
      <path
         d="m 323.19684,458.77594 q 0,0.50781 -0.46875,0.58594 -0.19531,0.0781 -0.39063,0.0781 -0.15625,-0.0391 -0.35156,0 -0.46875,0.0391 -0.9375,0.11719 -0.42969,0.0781 -0.89844,0.15625 -2.10937,0.42969 -4.14062,1.40625 -1.99219,0.9375 -3.47656,2.5 -0.42969,0.46875 -0.70313,1.01562 -0.23437,0.50782 -0.23437,1.17188 0,0.42969 0.46875,0.66406 0.46875,0.23438 1.13281,0.46875 0.70312,0.23438 1.48437,0.50781 0.82032,0.27344 1.48438,0.78125 0.70312,0.50782 1.17187,1.32813 0.46875,0.78125 0.46875,2.03125 0,1.44531 -0.54687,2.77344 -0.54688,1.32812 -1.52344,2.38281 -0.97656,1.01562 -2.26562,1.60156 -1.28907,0.625 -2.73438,0.625 -1.36719,0 -2.42187,-0.58594 -1.01563,-0.58593 -1.71875,-1.52343 -0.70313,-0.9375 -1.05469,-2.10938 -0.35156,-1.21094 -0.35156,-2.46094 0,-0.23437 0,-0.58593 0.0391,-0.39063 0.0781,-0.74219 0.0781,-0.35156 0.23438,-0.625 0.15625,-0.27344 0.46875,-0.27344 0.19531,0 0.39062,0.15625 0.23438,0.15625 0.23438,0.39063 0,0.89843 0.19531,1.99218 0.23437,1.09375 0.70312,2.03125 0.46875,0.9375 1.25,1.60157 0.78125,0.625 1.91407,0.625 1.01562,0 1.95312,-0.42969 0.9375,-0.46875 1.64063,-1.21094 0.74218,-0.74219 1.13281,-1.67969 0.42969,-0.97656 0.42969,-1.99218 l 0,-0.39063 q 0,-0.66406 -0.46875,-1.09375 -0.42969,-0.42969 -1.09375,-0.70312 -0.66407,-0.3125 -1.44532,-0.58594 -0.78125,-0.27344 -1.44531,-0.625 -0.66406,-0.39063 -1.13281,-0.9375 -0.42969,-0.54688 -0.42969,-1.44531 0,-0.9375 0.39063,-1.79688 0.42968,-0.85937 1.09375,-1.52344 2.30468,-2.22656 5.27343,-3.20312 3.00782,-1.01563 6.17188,-1.01563 0.23437,0 0.35156,0.19532 0.11719,0.15625 0.11719,0.35156 z"
         style="font-style:normal;font-variant:normal;font-weight:normal;font-stretch:normal;font-family:Calligraffitti;-inkscape-font-specification:Calligraffitti;text-align:center;text-anchor:middle"
         id="path4219"
         inkscape:connector-curvature="0" />
      <path
         d="m 333.39215,451.94 q 0,0.0781 -0.0391,0.11719 0,0.0391 0,0.0781 -1.21094,2.69532 -2.5,5.35157 -1.28906,2.61718 -2.30469,5.42968 0.42969,0 0.82031,0 0.39063,-0.0391 0.82032,-0.0391 0.19531,0 0.42968,0 0.27344,-0.0391 0.46875,0.0391 0.23438,0.0391 0.39063,0.19532 0.15625,0.11718 0.15625,0.42968 0,0.39063 -0.3125,0.50782 -0.27344,0.0781 -0.74219,0.19531 -0.42969,0.0781 -0.9375,0.15625 -0.46875,0.0781 -0.9375,0.15625 -0.42969,0.0391 -0.74219,0.0781 -0.35156,1.01563 -0.66406,2.26563 -0.3125,1.21094 -0.54687,2.53906 -0.23438,1.28906 -0.39063,2.57813 -0.15625,1.25 -0.15625,2.30468 0,0.27344 0,0.85938 0.0391,0.54687 0.11719,1.09375 0.11719,0.54687 0.3125,0.97656 0.23437,0.42969 0.625,0.42969 0.54687,0 1.25,-0.54688 0.70312,-0.54687 1.36719,-1.25 0.70312,-0.74218 1.28906,-1.44531 0.625,-0.74219 1.01562,-1.13281 0.15625,-0.15625 0.35157,-0.15625 0.23437,0 0.42968,0.19531 0.23438,0.19531 0.23438,0.42969 0,0.11719 -0.11719,0.27344 -0.42969,0.625 -1.13281,1.5625 -0.66406,0.89843 -1.48438,1.75781 -0.78125,0.82031 -1.67968,1.40625 -0.85938,0.58594 -1.67969,0.58594 -0.89844,0 -1.44531,-0.625 -0.54688,-0.625 -0.85938,-1.48438 -0.27344,-0.89844 -0.39062,-1.83594 -0.0781,-0.97656 -0.0781,-1.64062 0,-0.9375 0.11719,-2.10938 0.15625,-1.17187 0.35156,-2.38281 0.19531,-1.21094 0.46875,-2.34375 0.27344,-1.17187 0.50781,-2.10937 -0.3125,0 -0.625,0.0391 -0.27343,0 -0.58593,0 -0.82032,0 -1.67969,-0.0391 -0.85938,-0.0391 -1.67969,-0.15625 -0.82031,-0.15625 -1.60156,-0.46875 -0.78125,-0.35157 -1.40625,-0.9375 -0.15625,-0.11719 -0.15625,-0.35157 0,-0.0781 0.23437,-0.39062 0.23438,-0.35156 0.3125,-0.35156 1.44532,0 2.85157,0.3125 1.40625,0.3125 2.85156,0.39062 0.46875,0.0391 0.9375,0.0391 0.50781,0 1.01562,0 l 0.11719,0 q 0.42969,-1.32812 1.05469,-2.89062 0.625,-1.5625 1.40625,-3.08594 0.78125,-1.52344 1.64062,-2.92969 0.89844,-1.44531 1.83594,-2.5 0.23438,-0.15625 0.39063,-0.15625 0.23437,0 0.46875,0.19532 0.23437,0.15625 0.23437,0.39062 z"
         style="font-style:normal;font-variant:normal;font-weight:normal;font-stretch:normal;font-family:Calligraffitti;-inkscape-font-specification:Calligraffitti;text-align:center;text-anchor:middle"
         id="path4221"
         inkscape:connector-curvature="0" />
      <path
         d="m 366.94684,446.58844 q 0,0.42969 -0.42969,0.58594 -0.66406,0.27343 -1.25,0.46875 -0.54687,0.15625 -1.21094,0.46875 -1.5625,0.78125 -2.85156,1.95312 -1.25,1.13281 -2.30469,2.5 -1.01562,1.36719 -1.83593,2.89063 -0.78125,1.52343 -1.40625,3.08593 l -0.0391,0.11719 q 0.78125,-0.11719 1.52344,-0.23437 0.78125,-0.11719 1.5625,-0.11719 0.39063,0 1.05469,0.0781 0.66406,0.0391 1.01562,0.19532 0.15625,0.0781 0.23438,0.3125 0.11719,0.23437 0.11719,0.39062 0,0.11719 -0.0781,0.27344 -0.0391,0.11719 -0.19531,0.19531 -1.36719,0.625 -3.00781,0.78125 -1.64063,0.11719 -3.125,0.27344 -1.36719,3.4375 -2.53907,6.875 -1.17187,3.4375 -2.34375,6.95312 -0.82031,2.46094 -1.52343,4.96094 -0.70313,2.5 -1.52344,4.92188 -0.82031,2.46093 -1.875,4.80468 -1.05469,2.38282 -2.53906,4.53125 -0.70313,0.97657 -1.5625,1.83594 -0.89844,0.89844 -1.91407,1.5625 -1.05468,0.66406 -2.22656,1.05469 -1.17187,0.39062 -2.38281,0.39062 -1.48438,0 -2.92969,-0.54687 -1.48437,-0.50781 -2.77344,-1.36719 -1.32812,-0.85937 -2.42187,-1.99219 -1.09375,-1.13281 -1.83594,-2.38281 -0.0781,-0.23437 -0.0781,-0.3125 0,-0.23437 0.19531,-0.39062 0.15625,-0.15625 0.39062,-0.15625 0.27344,0 0.50782,0.23437 0.3125,0.42969 0.58593,0.78125 0.27344,0.39063 0.58594,0.78125 1.32813,1.40625 3.00781,2.42188 1.67969,1.01562 3.63282,1.32812 0.23437,0.0391 0.46875,0.0391 0.23437,0.0391 0.46875,0.0391 1.52343,0 2.85156,-0.66407 1.28906,-0.625 2.38281,-1.71875 1.09375,-1.05468 1.99219,-2.46093 0.85937,-1.40625 1.60156,-2.89063 0.70313,-1.48437 1.25,-2.96875 0.50781,-1.44531 0.89844,-2.65625 0.78125,-2.46094 1.44531,-4.92187 0.66406,-2.42188 1.44531,-4.88282 1.09375,-3.28125 2.10938,-6.48437 1.05469,-3.24219 2.26562,-6.44531 -1.28906,0.11718 -2.57812,0.19531 -1.28906,0.0781 -2.57813,0.0781 -0.15625,0 -0.3125,-0.23437 -0.11718,-0.27344 -0.11718,-0.42969 0,-0.39062 0.3125,-0.50781 0.46875,-0.11719 0.9375,-0.19531 0.50781,-0.0781 0.97656,-0.15625 1.01562,-0.19532 2.07031,-0.35157 1.05469,-0.19531 2.10938,-0.39062 0.11718,-0.35156 0.23437,-0.66406 0.15625,-0.35157 0.3125,-0.66407 0.82031,-2.07031 1.99219,-4.0625 1.17187,-2.03125 2.69531,-3.63281 1.5625,-1.64062 3.51563,-2.73437 1.95312,-1.09375 4.29687,-1.32813 l 0.15625,0 q 0.23438,0 0.39063,0.19531 0.19531,0.15625 0.19531,0.39063 z"
         style="font-style:normal;font-variant:normal;font-weight:normal;font-stretch:normal;font-family:Calligraffitti;-inkscape-font-specification:Calligraffitti;text-align:center;text-anchor:middle"
         id="path4223"
         inkscape:connector-curvature="0" />
      <path
         d="m 373.11871,463.46344 q 0,1.48437 -0.35156,3.24219 -0.3125,1.75781 -0.97656,3.51562 -0.66406,1.75781 -1.64063,3.4375 -0.9375,1.64063 -2.1875,2.92969 -1.21093,1.28906 -2.73437,2.03125 -1.48438,0.78125 -3.20313,0.78125 -1.28906,0 -2.22656,-0.70313 -0.9375,-0.66406 -1.60156,-1.71875 -0.625,-1.05468 -0.9375,-2.26562 -0.3125,-1.25 -0.3125,-2.34375 0,-1.28906 0.35156,-2.53906 1.09375,-3.59375 3.51563,-6.40625 2.42187,-2.8125 5.89843,-4.21875 0.0781,-0.0391 0.19532,-0.0391 0.27343,0 0.39062,0.19532 0.15625,0.19531 0.15625,0.42968 0,0.27344 -0.3125,0.46875 -0.54687,0.3125 -1.09375,0.625 -0.54687,0.27344 -1.09375,0.70313 -2.14844,1.5625 -3.67187,3.86719 -1.52344,2.30468 -2.30469,4.84375 -0.27344,0.82031 -0.27344,1.83593 0,0.82032 0.23438,1.75782 0.23437,0.9375 0.70312,1.75781 0.46875,0.78125 1.17188,1.32812 0.74218,0.50782 1.71875,0.50782 0.625,0 1.17187,-0.23438 0.58594,-0.23437 1.09375,-0.58594 1.48438,-1.05468 2.65625,-2.73437 1.17188,-1.67969 1.99219,-3.59375 0.82031,-1.95313 1.25,-3.94531 0.42969,-2.03125 0.42969,-3.82813 l 0,-0.46875 q -0.0781,-1.01562 -0.70313,-1.71875 -0.58594,-0.70312 -1.48437,-1.13281 -0.27344,-0.11719 -0.54688,-0.19531 -0.23437,-0.0781 -0.46875,-0.19532 -0.39062,-0.15625 -0.39062,-0.54687 0,-0.27344 0.15625,-0.46875 0.15625,-0.19531 0.42968,-0.15625 l 0.0391,0 q 0.85937,0.0781 1.67968,0.39062 0.85938,0.3125 1.52344,0.85938 0.66406,0.54687 1.09375,1.28906 0.46875,0.74219 0.58594,1.67969 0.0781,0.39062 0.0781,0.78125 0,0.35156 0,0.78125 z"
         style="font-style:normal;font-variant:normal;font-weight:normal;font-stretch:normal;font-family:Calligraffitti;-inkscape-font-specification:Calligraffitti;text-align:center;text-anchor:middle"
         id="path4225"
         inkscape:connector-curvature="0" />
      <path
         d="m 389.64215,461.90094 q 0,0.3125 -0.0391,0.58594 -0.0391,0.27343 -0.11719,0.58593 -0.0781,0.3125 -0.42969,0.3125 -0.15625,0 -0.46875,-0.11718 -0.27343,-0.15625 -0.27343,-0.3125 l 0.0391,-0.35157 q 0,-0.27343 -0.0781,-0.66406 -0.0391,-0.39062 -0.19531,-0.74219 -0.11719,-0.39062 -0.35156,-0.625 -0.23438,-0.27343 -0.625,-0.27343 -0.9375,0 -1.99219,0.58593 -1.05469,0.54688 -1.79687,1.09375 -0.3125,0.23438 -0.85938,0.70313 -0.54687,0.46875 -1.13281,1.01562 -0.58594,0.54688 -1.09375,1.05469 -0.46875,0.50781 -0.66406,0.82031 -0.11719,0.15625 -0.3125,0.58594 -0.15625,0.39063 -0.35157,0.85938 -0.15625,0.46875 -0.35156,0.89843 -0.15625,0.42969 -0.27344,0.66407 -0.78125,1.875 -1.52343,3.75 -0.70313,1.875 -1.32813,3.78906 -0.3125,0.89844 -0.58594,1.83594 -0.23437,0.97656 -0.54687,1.875 -0.15625,0.3125 -0.39063,0.3125 -0.15625,0 -0.46875,-0.19532 -0.27343,-0.15625 -0.27343,-0.3125 0,-0.42968 0.11718,-0.97656 0.15625,-0.54687 0.23438,-0.97656 0.50781,-2.53906 1.25,-5 0.74219,-2.46094 1.71875,-4.84375 0.35156,-0.9375 0.82031,-2.22656 0.50781,-1.28907 1.05469,-2.61719 0.54687,-1.36719 1.13281,-2.53906 0.625,-1.21094 1.25,-1.91407 0.15625,-0.15625 0.35156,-0.15625 0.15625,0 0.42969,0.19532 0.3125,0.15625 0.3125,0.35156 0,0.11719 -0.0781,0.42969 -0.0781,0.27343 -0.15625,0.625 -0.0781,0.3125 -0.19532,0.625 -0.0781,0.27343 -0.11718,0.39062 1.25,-0.9375 2.61718,-1.67969 1.36719,-0.74218 3.00782,-0.74218 0.70312,0 1.21093,0.3125 0.50782,0.27343 0.85938,0.74218 0.35156,0.46875 0.50781,1.05469 0.15625,0.58594 0.15625,1.21094 z"
         style="font-style:normal;font-variant:normal;font-weight:normal;font-stretch:normal;font-family:Calligraffitti;-inkscape-font-specification:Calligraffitti;text-align:center;text-anchor:middle"
         id="path4227"
         inkscape:connector-curvature="0" />
      <path
         d="m 430.69684,455.69 q 0,0.23438 -0.11719,0.35156 -1.40625,2.03125 -2.65625,4.02344 -1.21094,1.95313 -2.30469,3.98438 -1.09375,2.03125 -2.03125,4.17968 -0.89843,2.10938 -1.67968,4.45313 -0.78125,2.26562 -1.32813,4.60937 -0.50781,2.30469 -1.05469,4.64844 -0.50781,2.34375 -1.09375,4.64844 -0.58593,2.34375 -1.44531,4.60937 -0.78125,2.03125 -1.79687,3.82813 -1.01563,1.83594 -2.42188,3.20312 -1.36719,1.40625 -3.20312,2.1875 -1.83594,0.82032 -4.21875,0.82032 -2.03125,0 -3.78907,-0.66407 -1.75781,-0.625 -3.04687,-1.83593 -1.32813,-1.17188 -2.07031,-2.85157 -0.74219,-1.67968 -0.74219,-3.75 0,-2.10937 0.66406,-4.25781 0.625,-2.14844 1.75781,-4.14062 1.13282,-1.95313 2.69532,-3.59375 1.5625,-1.60157 3.39843,-2.61719 0.15625,-0.0781 0.27344,-0.0781 0.23438,0 0.39063,0.15625 0.19531,0.19532 0.19531,0.42969 0,0.3125 -0.3125,0.50781 -0.39063,0.3125 -0.78125,0.54688 -0.39063,0.27344 -0.78125,0.58594 -1.75781,1.44531 -3.00781,3.35937 -1.21094,1.91406 -1.99219,4.02344 -0.39063,1.13281 -0.625,2.30469 -0.23438,1.21093 -0.23438,2.46093 0,1.79688 0.58594,3.20313 0.58594,1.40625 1.64063,2.34375 1.05468,0.97656 2.5,1.48437 1.48437,0.50782 3.24218,0.50782 0.89844,0 1.75782,-0.15625 0.89843,-0.15625 1.75781,-0.54688 1.36719,-0.58594 2.46094,-1.71875 1.13281,-1.13281 1.99218,-2.61719 0.89844,-1.48437 1.5625,-3.20312 0.70313,-1.67969 1.21094,-3.39844 0.50781,-1.71875 0.85938,-3.35937 0.39062,-1.64063 0.66406,-2.96875 0.46875,-2.10938 0.9375,-4.21875 0.46875,-2.14844 1.05469,-4.25782 -0.66407,0.85938 -1.60157,1.875 -0.89843,0.97657 -1.99218,1.83594 -1.05469,0.82031 -2.22657,1.36719 -1.17187,0.58594 -2.34375,0.58594 -1.17187,0 -1.91406,-0.50782 -0.70312,-0.46875 -1.09375,-1.21093 -0.35156,-0.78125 -0.50781,-1.71875 -0.11719,-0.9375 -0.11719,-1.875 0,-1.25 0.15625,-2.42188 0.15625,-1.21094 0.42969,-2.38281 1.01562,-4.60938 2.5,-9.02344 1.48437,-4.41406 3.71094,-8.59375 -1.13282,0.66406 -2.30469,1.21094 -1.13281,0.54687 -2.26563,1.21094 -1.52343,0.9375 -3.04687,2.1875 -1.48438,1.25 -2.1875,2.96875 -0.15625,0.39062 -0.23438,0.74218 -0.0781,0.35157 -0.15625,0.74219 -0.11718,0.35156 -0.54687,0.35156 -0.19531,0 -0.42969,-0.15625 -0.19531,-0.15625 -0.19531,-0.39062 0,-1.36719 0.46875,-2.53906 0.50781,-1.21094 1.32812,-2.22657 0.82032,-1.01562 1.83594,-1.83593 1.05469,-0.85938 2.10938,-1.52344 1.75781,-1.09375 3.55468,-2.03125 1.83594,-0.97656 3.78907,-1.67969 0.0391,-0.11719 0.15625,-0.19531 0.15625,-0.0781 0.27343,-0.0781 0.23438,0 0.42969,0.19532 0.23438,0.15625 0.23438,0.42968 0,0.11719 -0.0391,0.15625 -0.58593,1.60157 -1.40625,3.63282 -0.78125,2.03125 -1.64062,4.29687 -0.85938,2.22656 -1.67969,4.60938 -0.82031,2.34375 -1.48437,4.60937 -0.625,2.22656 -1.05469,4.29688 -0.39063,2.03125 -0.39063,3.67187 0,0.54688 0,1.13281 0.0391,0.54688 0.19532,1.01563 0.19531,0.46875 0.54687,0.78125 0.39063,0.3125 1.09375,0.3125 0.50781,0 0.97656,-0.15625 0.46875,-0.15625 0.89844,-0.35156 1.40625,-0.70313 2.57813,-1.71875 1.17187,-1.05469 2.1875,-2.26563 1.05468,-1.21094 1.95312,-2.5 0.9375,-1.32812 1.75781,-2.57812 0.0781,-0.0781 0.0781,-0.11719 0.70312,-1.48438 1.5625,-3.04688 0.85937,-1.60156 1.83594,-3.125 0.97656,-1.5625 2.07031,-2.96875 1.09375,-1.44531 2.22656,-2.61718 0.19531,-0.19532 0.46875,-0.19532 0.23438,0 0.39063,0.15625 0.19531,0.15625 0.19531,0.42969 z"
         style="font-style:normal;font-variant:normal;font-weight:normal;font-stretch:normal;font-family:Calligraffitti;-inkscape-font-specification:Calligraffitti;text-align:center;text-anchor:middle"
         id="path4229"
         inkscape:connector-curvature="0" />
      <path
         d="m 445.07184,463.46344 q 0,1.48437 -0.35156,3.24219 -0.3125,1.75781 -0.97657,3.51562 -0.66406,1.75781 -1.64062,3.4375 -0.9375,1.64063 -2.1875,2.92969 -1.21094,1.28906 -2.73438,2.03125 -1.48437,0.78125 -3.20312,0.78125 -1.28906,0 -2.22656,-0.70313 -0.9375,-0.66406 -1.60157,-1.71875 -0.625,-1.05468 -0.9375,-2.26562 -0.3125,-1.25 -0.3125,-2.34375 0,-1.28906 0.35157,-2.53906 1.09375,-3.59375 3.51562,-6.40625 2.42188,-2.8125 5.89844,-4.21875 0.0781,-0.0391 0.19531,-0.0391 0.27344,0 0.39063,0.19532 0.15625,0.19531 0.15625,0.42968 0,0.27344 -0.3125,0.46875 -0.54688,0.3125 -1.09375,0.625 -0.54688,0.27344 -1.09375,0.70313 -2.14844,1.5625 -3.67188,3.86719 -1.52344,2.30468 -2.30469,4.84375 -0.27343,0.82031 -0.27343,1.83593 0,0.82032 0.23437,1.75782 0.23438,0.9375 0.70313,1.75781 0.46875,0.78125 1.17187,1.32812 0.74219,0.50782 1.71875,0.50782 0.625,0 1.17188,-0.23438 0.58593,-0.23437 1.09375,-0.58594 1.48437,-1.05468 2.65625,-2.73437 1.17187,-1.67969 1.99218,-3.59375 0.82032,-1.95313 1.25,-3.94531 0.42969,-2.03125 0.42969,-3.82813 l 0,-0.46875 q -0.0781,-1.01562 -0.70312,-1.71875 -0.58594,-0.70312 -1.48438,-1.13281 -0.27344,-0.11719 -0.54687,-0.19531 -0.23438,-0.0781 -0.46875,-0.19532 -0.39063,-0.15625 -0.39063,-0.54687 0,-0.27344 0.15625,-0.46875 0.15625,-0.19531 0.42969,-0.15625 l 0.0391,0 q 0.85938,0.0781 1.67969,0.39062 0.85937,0.3125 1.52344,0.85938 0.66406,0.54687 1.09375,1.28906 0.46875,0.74219 0.58593,1.67969 0.0781,0.39062 0.0781,0.78125 0,0.35156 0,0.78125 z"
         style="font-style:normal;font-variant:normal;font-weight:normal;font-stretch:normal;font-family:Calligraffitti;-inkscape-font-specification:Calligraffitti;text-align:center;text-anchor:middle"
         id="path4231"
         inkscape:connector-curvature="0" />
      <path
         d="m 465.77496,473.65875 q 0,0.15625 -0.15625,0.3125 -0.78125,0.89844 -1.48437,1.75781 -0.70313,0.85938 -1.52344,1.60157 -0.78125,0.74218 -1.75781,1.28906 -0.9375,0.54687 -2.14844,0.82031 -1.79687,-0.82031 -1.79687,-2.77344 0,-0.42968 0.0781,-0.85937 0.0781,-0.46875 0.0391,-0.9375 -0.54687,0.58594 -1.36718,1.32812 -0.78125,0.70313 -1.71875,1.36719 -0.89844,0.66406 -1.83594,1.09375 -0.9375,0.46875 -1.75781,0.46875 -1.09375,0 -1.79688,-0.46875 -0.70312,-0.42969 -1.13281,-1.13281 -0.39063,-0.74219 -0.54688,-1.64063 -0.15625,-0.9375 -0.15625,-1.83593 0,-0.9375 0.11719,-1.83594 0.19531,-1.875 0.66406,-3.59375 0.46875,-1.75781 1.13282,-3.47656 0.50781,-1.21094 1.05468,-2.38282 0.54688,-1.21093 1.09375,-2.38281 0.19532,-0.39062 0.39063,-0.85937 0.19531,-0.50782 0.42969,-0.82032 0.19531,-0.27343 0.46875,-0.27343 0.19531,0 0.42968,0.19531 0.23438,0.19531 0.23438,0.39062 0,0.27344 -0.11719,0.78125 -0.0781,0.46875 -0.23437,1.01563 -0.11719,0.50781 -0.27344,1.01562 -0.11719,0.46875 -0.23438,0.74219 -0.42968,1.40625 -1.01562,2.8125 -0.54688,1.36719 -1.05469,2.8125 -0.46875,1.40625 -0.82031,2.85156 -0.3125,1.44532 -0.3125,2.92969 0,0.42969 0.0391,1.01563 0.0391,0.54687 0.19531,1.09375 0.15625,0.50781 0.46875,0.89843 0.35157,0.35157 0.9375,0.35157 0.78125,0 1.75782,-0.50782 1.01562,-0.54687 1.99218,-1.25 1.01563,-0.74218 1.91407,-1.52343 0.89843,-0.78125 1.44531,-1.28907 0.35156,-1.67968 0.9375,-3.75 0.625,-2.10937 1.44531,-4.21875 0.82031,-2.10937 1.79688,-3.98437 0.97656,-1.91406 2.10937,-3.20313 0.19531,-0.19531 0.39063,-0.19531 0.23437,0 0.46875,0.19531 0.23437,0.19532 0.23437,0.46875 -0.0391,0.0391 -0.0391,0.0781 -0.74219,2.07031 -1.79688,4.49219 -1.01562,2.38281 -1.95312,4.88281 -0.9375,2.46094 -1.60156,4.92187 -0.66407,2.46094 -0.66407,4.6875 0,0.15625 0,0.3125 0.0391,0.15625 0.19532,0.23438 0.89843,-0.15625 1.875,-0.89844 1.01562,-0.74219 1.875,-1.5625 0.89843,-0.85937 1.5625,-1.52344 0.66406,-0.66406 0.85937,-0.66406 0.23438,0 0.42969,0.19531 0.23437,0.19532 0.23437,0.42969 z"
         style="font-style:normal;font-variant:normal;font-weight:normal;font-stretch:normal;font-family:Calligraffitti;-inkscape-font-specification:Calligraffitti;text-align:center;text-anchor:middle"
         id="path4233"
         inkscape:connector-curvature="0" />
    </g>
    <g
       transform="matrix(1.3730719,-0.14226506,0.12012823,1.6260971,-157.28222,-349.40781)"
       style="font-style:normal;font-weight:normal;font-size:40px;line-height:125%;font-family:sans-serif;letter-spacing:0px;word-spacing:0px;fill:#000000;fill-opacity:1;stroke:none;stroke-width:1px;stroke-linecap:butt;stroke-linejoin:miter;stroke-opacity:1"
       id="text4235">
      <path
         d="m 360.29364,571.55188 q 0,0.0781 -0.0781,0.3125 -0.50782,0.82031 -1.28907,1.95312 -0.78125,1.09375 -1.71875,2.10938 -0.9375,0.97656 -1.95312,1.64062 -0.97656,0.70313 -1.91406,0.70313 -0.78125,0 -1.48438,-0.39063 -0.70312,-0.35156 -1.17187,-1.05468 -0.54688,-0.78125 -0.97657,-1.79688 -0.39062,-1.01562 -0.70312,-2.10937 -0.27344,-1.09375 -0.50781,-2.1875 -0.19532,-1.09375 -0.35157,-2.10938 -1.99218,2.77344 -3.67187,5.74219 -1.67969,2.92969 -3.47656,5.78125 -1.79688,2.92969 -3.82813,5.58594 -2.03125,2.65625 -4.72656,4.76562 -1.05469,0.82031 -2.30469,1.36719 -1.25,0.54687 -2.53906,0.54687 -1.40625,0 -2.53906,-0.70312 -1.13282,-0.66406 -2.03125,-1.79688 -0.9375,-1.09375 -1.60157,-2.5 -0.70312,-1.36718 -1.21093,-2.73437 -0.0391,-0.0781 -0.0391,-0.23438 0,-0.27343 0.19532,-0.46875 0.15625,-0.15625 0.35156,-0.15625 0.35156,0 0.46875,0.3125 0.19531,0.39063 0.35156,0.78125 0.15625,0.39063 0.35156,0.78125 0.66407,1.36719 1.5625,2.57813 0.89844,1.25 2.07032,1.91406 0.89843,0.50781 1.91406,0.50781 1.13281,0 2.1875,-0.50781 1.05469,-0.50781 1.95312,-1.25 2.03125,-1.71875 3.75,-3.82812 1.67969,-2.07032 3.16407,-4.41407 1.52343,-2.34375 2.92968,-4.76562 1.36719,-2.46094 2.77344,-4.88281 0.82031,-1.36719 1.67969,-2.69532 0.89844,-1.32812 1.83594,-2.57812 -0.19532,-1.875 -0.39063,-3.75 -0.19531,-1.91406 -0.19531,-3.78906 0,-0.23438 0.23437,-0.42969 0.23438,-0.19531 0.39063,-0.19531 0.35156,0 0.46875,0.35156 0.42969,1.21094 0.70312,2.85156 0.27344,1.60156 0.46875,2.92969 2.03125,-2.26563 4.375,-3.86719 2.38282,-1.64062 5.11719,-2.26562 l 0.0781,-0.0391 q 0.23437,0 0.39062,0.23438 0.19531,0.19531 0.19531,0.46875 0,0.39062 -0.35156,0.58594 -0.27344,0.15625 -0.54687,0.27343 -0.27344,0.11719 -0.50782,0.23438 -2.5,1.25 -4.57031,3.125 -2.07031,1.83594 -3.82812,4.02344 0.0391,0.42968 0.11718,1.09375 0.11719,0.66406 0.23438,1.44531 0.11719,0.78125 0.27344,1.64062 0.15625,0.82032 0.35156,1.64063 0.42969,1.67969 1.05469,2.89062 0.66406,1.17188 1.60156,1.17188 0.19531,0 0.39062,-0.0781 0.23438,-0.0781 0.42969,-0.15625 0.78125,-0.39062 1.44531,-0.97656 0.70313,-0.58594 1.32813,-1.28906 0.66406,-0.66406 1.21094,-1.40625 0.58593,-0.78125 1.21093,-1.48438 0.15625,-0.15625 0.3125,-0.15625 0.19532,0 0.39063,0.23438 0.19531,0.19531 0.19531,0.46875 z"
         style="font-style:normal;font-variant:normal;font-weight:normal;font-stretch:normal;font-family:Calligraffitti;-inkscape-font-specification:Calligraffitti"
         id="path4246"
         inkscape:connector-curvature="0" />
      <path
         d="m 374.27802,562.17688 q 0,1.48437 -0.35157,3.24219 -0.3125,1.75781 -0.97656,3.51562 -0.66406,1.75781 -1.64062,3.4375 -0.9375,1.64063 -2.1875,2.92969 -1.21094,1.28906 -2.73438,2.03125 -1.48437,0.78125 -3.20312,0.78125 -1.28907,0 -2.22657,-0.70313 -0.9375,-0.66406 -1.60156,-1.71875 -0.625,-1.05468 -0.9375,-2.26562 -0.3125,-1.25 -0.3125,-2.34375 0,-1.28906 0.35156,-2.53906 1.09375,-3.59375 3.51563,-6.40625 2.42187,-2.8125 5.89844,-4.21875 0.0781,-0.0391 0.19531,-0.0391 0.27344,0 0.39062,0.19532 0.15625,0.19531 0.15625,0.42968 0,0.27344 -0.3125,0.46875 -0.54687,0.3125 -1.09375,0.625 -0.54687,0.27344 -1.09375,0.70313 -2.14843,1.5625 -3.67187,3.86719 -1.52344,2.30468 -2.30469,4.84375 -0.27344,0.82031 -0.27344,1.83593 0,0.82032 0.23438,1.75782 0.23437,0.9375 0.70312,1.75781 0.46875,0.78125 1.17188,1.32812 0.74219,0.50782 1.71875,0.50782 0.625,0 1.17187,-0.23438 0.58594,-0.23437 1.09375,-0.58594 1.48438,-1.05468 2.65625,-2.73437 1.17188,-1.67969 1.99219,-3.59375 0.82031,-1.95313 1.25,-3.94531 0.42969,-2.03125 0.42969,-3.82813 l 0,-0.46875 q -0.0781,-1.01562 -0.70313,-1.71875 -0.58593,-0.70312 -1.48437,-1.13281 -0.27344,-0.11719 -0.54688,-0.19531 -0.23437,-0.0781 -0.46875,-0.19532 -0.39062,-0.15625 -0.39062,-0.54687 0,-0.27344 0.15625,-0.46875 0.15625,-0.19531 0.42969,-0.15625 l 0.0391,0 q 0.85937,0.0781 1.67969,0.39062 0.85937,0.3125 1.52343,0.85938 0.66407,0.54687 1.09375,1.28906 0.46875,0.74219 0.58594,1.67969 0.0781,0.39062 0.0781,0.78125 0,0.35156 0,0.78125 z"
         style="font-style:normal;font-variant:normal;font-weight:normal;font-stretch:normal;font-family:Calligraffitti;-inkscape-font-specification:Calligraffitti"
         id="path4248"
         inkscape:connector-curvature="0" />
    </g>
    <path
       style="fill:#000000;fill-opacity:1;fill-rule:evenodd;stroke:none;stroke-width:1px;stroke-linecap:butt;stroke-linejoin:miter;stroke-opacity:1"
       d="m 347.98784,564.01602 c 23.54624,-8.16154 84.85891,-33.01802 91.17531,-32.31682 -7.73857,4.94023 -68.38495,25.33871 -91.43894,35.6378 -3.01507,0.12144 -3.0591,-1.91215 0.26363,-3.32098 z"
       id="path4243"
       inkscape:connector-curvature="0"
       sodipodi:nodetypes="cccc" />
  </g>
</svg>
